<svg width="445" height="2100" viewBox="0 0 445 2100" fill="none" xmlns="http://www.w3.org/2000/svg">
<g clip-path="url(#clip0_501_563)">
<rect width="445" height="2100" fill="white"/>
<path d="M152.19 108.353C155.19 103.353 159.155 99.7511 162.189 97.8528C162.189 97.8528 162.19 85.3528 172.69 81.3528C183.19 77.3528 191.69 81.8528 194.69 84.8528C197.19 83.8528 206.19 82.7759 210.69 84.8528C215.19 86.9297 217.69 90.8528 218.19 93.8528C221.69 95.8144 222.807 100.471 222.807 100.471C226.98 96.8071 233.835 94.6491 238.024 94.6491C242.975 94.6491 249.576 95.4177 255.035 102.52C262.243 98.4738 270.328 97.6847 276.869 98.2035C283.41 98.7223 289.892 101.88 293.245 104.297C296.597 106.714 300.48 110.009 303.019 115.976C311.412 115.976 320.453 122.518 322.96 128.232C325.467 133.946 325.472 144.038 322.168 149.533C324.885 157.237 324.861 160.773 323.351 164.51C321.84 168.248 319.633 170.566 316.334 175.091C318.661 178.267 317.716 178.307 320.323 179.409C322.791 180.452 326.119 178.594 326.617 182.255C326.848 183.953 331.37 186.124 330.01 187.513C327.654 189.921 318.44 190.869 315.323 190.831C313.338 190.808 306.744 188.433 306.744 188.433C306.744 188.433 296.786 202.939 278.93 197.798C268.074 203.31 259.931 208.175 251.509 209.32C243.086 210.465 233.619 205.976 226.279 203.947C222.089 206.535 209.226 209.628 205.311 209.32C201.397 209.012 194.796 206.208 189.303 202.918C182.838 207.33 178.755 209.646 176.223 211.786C174.974 212.842 172.158 214.332 171.174 213.146C167.589 213.932 164.51 213.556 164.214 211.375C164.033 210.047 165.849 206.081 167.22 205.234C169.278 203.962 169.832 202.002 170.866 199.878C172.251 197.032 172.215 196.443 169.676 196.077C165.979 195.544 161.836 193.388 157.914 193.713C153.495 194.078 149.057 192.679 147.047 189.133C144.084 183.905 146.355 184.537 150.398 183.987C153.294 183.593 154.794 181.931 157.628 181.49C161.504 180.887 167.094 182.037 166.47 177.445C165.905 173.288 166.184 165.22 168.652 161.595C168.974 161.123 169.783 159.729 172.284 156.536C171.253 157.724 166.43 158.136 164.632 158.18L164.625 158.181C162.778 158.226 156.635 158.378 150.997 156.456C145.352 154.532 139.91 151.891 137.19 147.353C134.95 143.616 134.317 135.723 137.19 130.353C140.062 124.983 142.843 122.953 146.19 119.853C149.537 116.753 149.19 113.353 152.19 108.353Z" fill="white"/>
<path fill-rule="evenodd" clip-rule="evenodd" d="M195.181 82.6026C191.174 79.2831 182.45 75.4944 171.978 79.4838C166.002 81.7601 163.055 86.4632 161.621 90.4219C160.904 92.402 160.549 94.2358 160.371 95.5736C160.312 96.0176 160.272 96.4098 160.245 96.7381C157.111 98.8972 153.366 102.505 150.475 107.324C149.109 109.6 148.371 111.607 147.77 113.243C147.66 113.544 147.554 113.831 147.45 114.106C146.78 115.872 146.164 117.151 144.831 118.385C144.361 118.82 143.896 119.239 143.434 119.655C140.684 122.132 138.05 124.504 135.426 129.41C133.783 132.482 133.188 136.165 133.273 139.516C133.358 142.844 134.12 146.123 135.474 148.381C138.595 153.587 144.676 156.414 150.352 158.349C156.328 160.386 162.757 160.227 164.643 160.181L164.674 160.18L164.682 160.18C165.31 160.164 166.262 160.108 167.305 159.997C167.259 160.068 167.218 160.133 167.181 160.19C167.103 160.312 167.043 160.404 166.999 160.47C165.471 162.714 164.749 166.06 164.434 169.116C164.112 172.247 164.182 175.464 164.488 177.714C164.541 178.101 164.513 178.324 164.486 178.435C164.463 178.53 164.435 178.564 164.416 178.585C164.347 178.661 164.093 178.852 163.343 179.002C162.615 179.148 161.724 179.202 160.64 179.251C160.563 179.255 160.484 179.259 160.404 179.262C159.44 179.306 158.337 179.356 157.32 179.514C155.639 179.776 154.341 180.395 153.294 180.894C153.254 180.913 153.215 180.932 153.176 180.951C152.087 181.469 151.237 181.854 150.128 182.005C149.658 182.069 149.209 182.116 148.767 182.162L148.655 182.173C148.261 182.214 147.855 182.255 147.483 182.306C146.788 182.4 145.68 182.574 144.843 183.246C144.349 183.643 143.977 184.183 143.804 184.848C143.642 185.468 143.685 186.076 143.793 186.603C144.001 187.615 144.552 188.786 145.307 190.119C147.863 194.628 153.273 196.103 158.079 195.706C159.654 195.575 161.37 195.939 163.332 196.497C163.743 196.614 164.172 196.742 164.614 196.873C166.143 197.329 167.819 197.83 169.39 198.056C169.428 198.062 169.465 198.067 169.501 198.072C169.391 198.324 169.249 198.63 169.067 199.003C168.813 199.524 168.601 199.986 168.412 200.4C167.689 201.976 167.294 202.837 166.168 203.532C165.475 203.96 164.916 204.636 164.511 205.213C164.073 205.835 163.668 206.553 163.33 207.263C162.991 207.973 162.696 208.722 162.494 209.416C162.314 210.034 162.127 210.873 162.232 211.645C162.54 213.916 164.365 214.97 166.042 215.329C167.447 215.629 169.094 215.558 170.741 215.269C171.22 215.487 171.716 215.571 172.152 215.582C172.92 215.601 173.667 215.409 174.28 215.187C175.511 214.741 176.731 213.976 177.514 213.313C178.671 212.336 180.222 211.286 182.38 209.88C182.808 209.6 183.258 209.309 183.731 209.002C185.348 207.954 187.226 206.736 189.381 205.282C191.902 206.726 194.595 208.051 197.145 209.09C200.033 210.266 202.888 211.136 205.154 211.314C206.383 211.411 208.119 211.24 209.961 210.95C211.852 210.652 214.017 210.2 216.177 209.66C219.976 208.709 224.021 207.419 226.534 206.099C228.08 206.553 229.73 207.107 231.489 207.697L231.497 207.7C233.542 208.386 235.72 209.116 237.941 209.748C242.358 211.003 247.152 211.931 251.778 211.302C256.273 210.691 260.621 209.097 265.144 207.013C268.169 205.619 271.359 203.963 274.755 202.199C276.182 201.458 277.645 200.698 279.147 199.931C288.368 202.343 295.641 199.869 300.601 196.734C303.133 195.134 305.062 193.365 306.361 191.995C306.785 191.547 307.144 191.14 307.437 190.792C308.062 191.005 308.851 191.268 309.689 191.531C310.655 191.835 311.707 192.147 312.657 192.386C313.548 192.61 314.54 192.822 315.299 192.831C317.004 192.852 320.214 192.61 323.303 192.058C324.854 191.781 326.433 191.417 327.809 190.945C329.119 190.495 330.51 189.862 331.44 188.912C331.922 188.419 332.24 187.769 332.263 187.02C332.285 186.334 332.052 185.765 331.835 185.373C331.426 184.637 330.752 183.986 330.279 183.541C330.096 183.369 329.927 183.215 329.771 183.071C329.434 182.763 329.152 182.504 328.894 182.229C328.696 182.018 328.61 181.894 328.578 181.847C328.396 180.673 327.942 179.632 327.064 178.887C326.189 178.145 325.169 177.938 324.413 177.861C323.964 177.815 323.365 177.803 322.895 177.794C322.684 177.79 322.499 177.787 322.366 177.781C321.773 177.754 321.387 177.688 321.101 177.567C319.973 177.09 319.905 176.96 319.872 176.899C319.869 176.893 319.866 176.888 319.863 176.883C319.78 176.764 319.714 176.651 319.599 176.451C319.523 176.321 319.426 176.154 319.289 175.925C319.149 175.691 318.987 175.427 318.793 175.129C319.236 174.537 319.665 173.974 320.079 173.431C322.221 170.62 323.961 168.337 325.205 165.259C326.058 163.149 326.506 161.033 326.341 158.384C326.191 155.991 325.543 153.232 324.35 149.722C325.922 146.67 326.648 142.771 326.742 139.015C326.846 134.889 326.195 130.628 324.791 127.429C323.33 124.097 320.11 120.764 316.285 118.283C312.797 116.02 308.58 114.319 304.331 114.022C301.594 108.305 297.683 105.031 294.414 102.674C290.842 100.099 284.017 96.7642 277.027 96.2097C270.669 95.7054 262.804 96.3783 255.543 99.9888C249.749 93.3867 242.936 92.649 238.024 92.649C235.637 92.649 232.641 93.2525 229.729 94.3052C227.683 95.0452 225.597 96.0363 223.731 97.2671C223.687 97.1761 223.641 97.0839 223.594 96.9908C222.892 95.6122 221.745 93.8687 219.967 92.6128C219.057 89.1377 216.196 85.1916 211.528 83.0368C208.823 81.7887 205.044 81.5634 201.853 81.7008C199.351 81.8086 196.885 82.157 195.181 82.6026ZM220.862 100.938L220.859 100.924C220.853 100.903 220.843 100.866 220.829 100.815C220.8 100.714 220.753 100.557 220.685 100.359C220.549 99.96 220.335 99.407 220.028 98.8042C219.396 97.5606 218.47 96.3027 217.212 95.5974L216.375 95.1282L216.217 94.1816C215.829 91.8546 213.769 88.4768 209.851 86.6687C208.056 85.8399 205.086 85.5653 202.026 85.6971C198.978 85.8284 196.369 86.3349 195.432 86.7097L194.208 87.1995L193.275 86.2669C190.726 83.7177 183.034 79.5523 173.401 83.2218C168.877 84.9456 166.574 88.4924 165.382 91.7837C164.787 93.4287 164.486 94.9698 164.336 96.1007C164.261 96.6637 164.224 97.1184 164.206 97.425C164.197 97.5781 164.193 97.6938 164.191 97.7669C164.19 97.8034 164.19 97.8292 164.189 97.8438L164.189 97.8528L164.189 97.8543L164.189 97.8555L164.189 97.857L164.189 98.9608L163.25 99.5484C160.473 101.286 156.736 104.663 153.905 109.382C152.748 111.31 152.146 112.942 151.546 114.566C151.429 114.885 151.311 115.204 151.19 115.525C150.446 117.484 149.562 119.455 147.549 121.32C147.036 121.795 146.544 122.239 146.069 122.668C143.37 125.105 141.232 127.035 138.953 131.296C137.724 133.594 137.199 136.542 137.272 139.415C137.345 142.31 138.019 144.846 138.905 146.324C141.224 150.194 146.028 152.649 151.643 154.563C156.909 156.358 162.728 156.227 164.575 156.181L164.576 156.181L164.583 156.181C165.407 156.161 166.968 156.053 168.42 155.814C169.149 155.694 169.792 155.55 170.279 155.389C170.688 155.254 170.827 155.158 170.83 155.162C170.831 155.164 170.81 155.183 170.775 155.223L173.983 157.606C173.935 157.674 173.885 157.738 173.835 157.799C171.829 160.362 170.971 161.692 170.533 162.373C170.441 162.516 170.367 162.63 170.305 162.721C169.365 164.102 168.714 166.602 168.413 169.525C168.12 172.373 168.192 175.269 168.452 177.176C168.662 178.724 168.382 180.167 167.378 181.274C166.453 182.293 165.184 182.713 164.13 182.924C163.054 183.14 161.86 183.2 160.824 183.247C160.764 183.25 160.704 183.253 160.644 183.256C159.619 183.302 158.726 183.343 157.935 183.466C156.846 183.636 156.011 184.031 154.896 184.562L154.893 184.563C153.8 185.084 152.453 185.726 150.667 185.969C150.127 186.042 149.62 186.095 149.176 186.141L149.078 186.151C148.665 186.193 148.325 186.228 148.021 186.27C147.966 186.277 147.914 186.284 147.866 186.292C148.024 186.703 148.307 187.3 148.787 188.147C150.251 190.729 153.716 192.053 157.749 191.719C160.096 191.525 162.412 192.077 164.426 192.649C164.963 192.802 165.474 192.954 165.965 193.1C167.429 193.536 168.708 193.916 169.961 194.097C170.619 194.192 171.334 194.326 171.943 194.598C172.622 194.902 173.381 195.477 173.669 196.51C173.911 197.377 173.703 198.205 173.521 198.76C173.323 199.362 173.011 200.039 172.664 200.753C172.526 201.037 172.388 201.348 172.241 201.678C171.491 203.369 170.527 205.542 168.271 206.935C168.271 206.935 168.27 206.936 168.268 206.938C168.244 206.958 168.067 207.109 167.782 207.515C167.499 207.916 167.204 208.431 166.94 208.985C166.676 209.539 166.465 210.084 166.335 210.533C166.212 210.955 166.206 211.138 166.201 211.138C166.201 211.138 166.201 211.138 166.201 211.138C166.203 211.148 166.205 211.15 166.211 211.154C166.214 211.156 166.216 211.158 166.22 211.161C166.276 211.209 166.46 211.328 166.879 211.417C167.738 211.601 169.086 211.556 170.745 211.192L171.936 210.931L172.457 211.559C172.569 211.537 172.722 211.497 172.918 211.426C173.653 211.16 174.466 210.652 174.932 210.259C176.307 209.096 178.063 207.918 180.196 206.528C180.635 206.242 181.093 205.945 181.57 205.636C183.442 204.422 185.618 203.011 188.176 201.266L189.233 200.545L190.33 201.203C192.996 202.799 195.928 204.276 198.653 205.385C201.417 206.51 203.819 207.196 205.468 207.326C206.197 207.384 207.537 207.283 209.338 206.999C211.091 206.723 213.138 206.297 215.206 205.779C219.433 204.721 223.423 203.36 225.227 202.245L225.97 201.786L226.811 202.019C228.687 202.537 230.684 203.208 232.698 203.884L232.769 203.907C234.827 204.598 236.918 205.298 239.035 205.9C243.292 207.11 247.443 207.854 251.239 207.338C255.167 206.804 259.102 205.393 263.47 203.38C266.41 202.026 269.459 200.442 272.8 198.707C274.462 197.844 276.196 196.943 278.024 196.014L278.727 195.658L279.483 195.876C287.752 198.257 294.119 196.099 298.464 193.353C300.654 191.969 302.331 190.433 303.458 189.244C304.019 188.651 304.44 188.149 304.716 187.802C304.853 187.629 304.954 187.495 305.017 187.409C305.049 187.366 305.072 187.335 305.085 187.316L305.095 187.301L305.096 187.3L305.097 187.299L305.098 187.297L305.969 186.029L307.422 186.552L307.425 186.553L307.491 186.576C307.537 186.593 307.607 186.618 307.697 186.649C307.876 186.713 308.137 186.804 308.455 186.913C309.094 187.132 309.963 187.424 310.889 187.716C311.82 188.008 312.789 188.295 313.634 188.507C314.538 188.735 315.114 188.829 315.347 188.832C316.759 188.848 319.715 188.635 322.6 188.12C324.037 187.864 325.398 187.543 326.51 187.161C327.019 186.987 327.428 186.815 327.749 186.656C327.686 186.595 327.617 186.529 327.541 186.458C327.436 186.359 327.314 186.247 327.184 186.128C326.803 185.778 326.344 185.357 325.977 184.965C325.538 184.497 324.786 183.635 324.635 182.524C324.584 182.147 324.506 181.988 324.473 181.938C324.438 181.921 324.315 181.872 324.004 181.84C323.691 181.808 323.44 181.805 323.117 181.801C322.87 181.798 322.58 181.794 322.188 181.777C321.447 181.744 320.492 181.652 319.544 181.251C318.177 180.673 317.306 180.207 316.584 179.173C316.405 178.917 316.21 178.583 316.035 178.283C315.972 178.174 315.911 178.071 315.855 177.977C315.602 177.554 315.259 177.009 314.72 176.273L313.856 175.094L314.717 173.913C315.618 172.678 316.415 171.631 317.125 170.697C319.147 168.039 320.47 166.301 321.496 163.761C322.154 162.134 322.472 160.614 322.348 158.634C322.22 156.589 321.616 153.981 320.282 150.198L319.969 149.31L320.454 148.502C321.86 146.163 322.65 142.651 322.743 138.915C322.837 135.192 322.232 131.551 321.128 129.036C320.083 126.653 317.529 123.858 314.108 121.639C310.71 119.435 306.726 117.976 303.019 117.976L301.697 117.976L301.179 116.759C298.845 111.275 295.295 108.241 292.075 105.919C288.941 103.66 282.802 100.68 276.711 100.197C270.424 99.6986 262.77 100.471 256.013 104.264L254.504 105.111L253.449 103.738C248.541 97.3533 242.705 96.649 238.024 96.649C236.222 96.649 233.696 97.1246 231.089 98.0669C228.489 99.0069 225.973 100.353 224.127 101.974L221.636 104.161L220.864 100.944C220.864 100.945 220.864 100.945 220.864 100.944L220.863 100.942L220.863 100.939L220.862 100.938ZM324.458 181.918C324.458 181.918 324.462 181.921 324.468 181.93C324.46 181.923 324.457 181.918 324.458 181.918Z" fill="#90B44B"/>
<path fill-rule="evenodd" clip-rule="evenodd" d="M222.244 110.517C223.347 110.467 224.282 111.321 224.332 112.424C224.374 113.342 224.109 114.667 223.848 115.703C223.847 115.706 223.846 115.71 223.845 115.713C224.324 115.775 224.781 115.874 225.22 116.008C226.527 116.408 227.54 117.087 228.389 117.846C229.104 118.486 229.75 119.231 230.325 119.894C230.402 119.983 230.478 120.07 230.553 120.156C231.216 120.916 231.851 121.616 232.615 122.253C235.538 124.688 238.748 127.783 241.069 130.782C242.226 132.277 243.222 133.826 243.833 135.316C244.424 136.76 244.787 138.481 244.154 140.09L243.826 140.926L242.982 141.236C239.369 142.561 236.509 143.151 233.741 143.181C230.993 143.21 228.461 142.683 225.569 141.957C222.454 141.175 219.353 139.678 216.99 137.732C214.677 135.826 212.759 133.214 212.76 130.174C212.76 129.069 213.655 128.174 214.76 128.174C215.864 128.174 216.76 129.07 216.76 130.174C216.759 131.484 217.629 133.075 219.534 134.644C221.389 136.173 223.938 137.423 226.544 138.078C229.375 138.789 231.491 139.204 233.698 139.181C235.622 139.16 237.71 138.803 240.451 137.885C240.405 137.615 240.31 137.268 240.131 136.832C239.712 135.809 238.952 134.583 237.906 133.23C235.821 130.536 232.844 127.649 230.055 125.326C229.03 124.472 228.219 123.567 227.537 122.784C227.457 122.693 227.38 122.603 227.304 122.517C226.705 121.827 226.236 121.287 225.722 120.828C225.182 120.345 224.663 120.021 224.049 119.833C223.428 119.643 222.579 119.552 221.333 119.73L217.406 120.29L219.29 116.8C219.424 116.551 219.711 115.748 219.969 114.724C220.233 113.68 220.349 112.872 220.336 112.605C220.287 111.501 221.141 110.566 222.244 110.517Z" fill="#90B44B"/>
<path d="M154.818 143.245C155.215 143.373 156.144 143.355 156.36 143.277C156.575 143.192 158.128 143.179 157.237 141.633C156.347 140.088 155.661 141.345 155.02 140.972C154.378 140.599 154.072 140.613 153.563 139.369C153.659 138.731 153.668 137.641 154.244 136.916C154.483 136.822 155.432 136.748 156.051 136.501C156.669 136.254 157.17 135.942 157.251 135.812C157.364 135.63 157.416 135.453 157.405 135.28C157.391 135.105 157.334 134.946 157.236 134.804C157.136 134.655 157.012 134.536 156.863 134.446C156.749 134.379 156.641 134.328 156.537 134.296C156.428 134.26 156.305 134.243 156.168 134.244C156.026 134.242 155.855 134.261 155.656 134.302C155.454 134.336 154.2 135.34 153.431 134.979C152.661 134.619 152.364 134.067 152.364 133.327C152.364 132.587 152.158 132.026 151.718 131.802C151.279 131.579 150.966 131.967 150.749 132.375C150.532 132.783 150.411 133.151 150.388 133.327C150.367 133.499 150.135 133.925 150.62 134.772C151.104 135.618 151.827 135.35 151.906 135.73C151.488 137.029 151.647 137.082 151.104 138.039C150.561 138.996 148.613 138.606 148.343 138.368C148.072 138.131 147.795 136.847 147.206 136.922C146.618 136.997 146.505 137.607 146.402 137.926C146.299 138.245 146.462 138.817 146.679 139.221C146.896 139.625 147.371 140.306 147.991 140.506C148.612 140.706 148.956 140.887 149.965 140.817C150.231 140.799 151.412 140.421 151.693 140.381C151.781 140.648 151.95 141.313 152.054 141.554C152.154 141.792 152.803 142.464 153.373 142.779C153.943 143.095 154.42 143.117 154.818 143.245Z" fill="#90B44B"/>
<path fill-rule="evenodd" clip-rule="evenodd" d="M156.652 144.233C156.66 144.232 156.669 144.23 156.681 144.228C156.687 144.227 156.693 144.225 156.7 144.224C156.756 144.214 156.844 144.197 156.938 144.176C157.138 144.13 157.47 144.038 157.777 143.829C158.115 143.598 158.439 143.209 158.501 142.637C158.556 142.119 158.378 141.609 158.104 141.134C157.832 140.663 157.504 140.274 157.072 140.046C156.605 139.8 156.162 139.816 155.834 139.883C155.684 139.914 155.548 139.958 155.46 139.987C155.451 139.989 155.443 139.992 155.435 139.995C155.406 140.004 155.383 140.012 155.363 140.018C155.292 139.979 155.222 139.942 155.167 139.912C155.127 139.891 155.096 139.874 155.079 139.865C154.982 139.811 154.941 139.781 154.911 139.754C154.865 139.712 154.762 139.603 154.59 139.225C154.596 139.173 154.601 139.12 154.607 139.07C154.612 139.022 154.617 138.976 154.622 138.933C154.645 138.737 154.67 138.549 154.705 138.367C154.749 138.143 154.804 137.956 154.871 137.803C154.889 137.8 154.908 137.797 154.926 137.794C154.996 137.782 155.074 137.769 155.18 137.75C155.524 137.689 156.007 137.595 156.422 137.429C156.776 137.288 157.101 137.126 157.359 136.974C157.488 136.899 157.611 136.818 157.719 136.737C157.791 136.683 157.972 136.544 158.099 136.341C158.296 136.026 158.429 135.645 158.404 135.22L158.403 135.208L158.402 135.196C158.373 134.853 158.26 134.529 158.063 134.242C157.885 133.977 157.655 133.755 157.377 133.589C157.211 133.49 157.033 133.404 156.842 133.343C156.618 133.271 156.391 133.243 156.172 133.244C155.94 133.241 155.699 133.273 155.463 133.321C155.335 133.346 155.236 133.389 155.199 133.406C155.144 133.43 155.094 133.456 155.056 133.477C154.987 133.514 154.908 133.561 154.839 133.602L154.823 133.611C154.664 133.705 154.497 133.803 154.321 133.888C154.141 133.975 153.994 134.027 153.886 134.048C153.855 134.054 153.833 134.056 153.82 134.057C153.597 133.947 153.504 133.842 153.459 133.769C153.41 133.691 153.364 133.562 153.364 133.327C153.364 132.496 153.141 131.404 152.171 130.911C151.908 130.777 151.608 130.71 151.293 130.747C150.986 130.784 150.737 130.912 150.551 131.051C150.207 131.309 149.99 131.672 149.866 131.905C149.63 132.35 149.452 132.824 149.4 133.167C149.4 133.169 149.399 133.172 149.398 133.175C149.392 133.199 149.381 133.245 149.37 133.291C149.343 133.416 149.314 133.587 149.314 133.797C149.314 134.228 149.435 134.716 149.752 135.268C149.941 135.599 150.171 135.848 150.425 136.034C150.527 136.108 150.627 136.168 150.722 136.217C150.689 136.341 150.663 136.449 150.64 136.54C150.62 136.623 150.602 136.693 150.587 136.75C150.532 136.95 150.473 137.125 150.237 137.54C150.228 137.548 150.203 137.566 150.144 137.586C150.03 137.627 149.855 137.655 149.634 137.652C149.419 137.649 149.208 137.618 149.046 137.579C149.038 137.577 149.03 137.576 149.023 137.574C149.011 137.548 148.996 137.516 148.979 137.479C148.924 137.36 148.849 137.198 148.782 137.068C148.682 136.875 148.527 136.603 148.303 136.377C148.067 136.141 147.649 135.857 147.08 135.93C146.386 136.018 145.973 136.45 145.752 136.838C145.593 137.119 145.493 137.468 145.46 137.584C145.455 137.601 145.452 137.613 145.45 137.619C145.313 138.042 145.379 138.484 145.447 138.771C145.523 139.094 145.65 139.42 145.798 139.695C145.935 139.95 146.153 140.293 146.444 140.613C146.727 140.924 147.142 141.283 147.684 141.458C147.739 141.475 147.8 141.496 147.865 141.518C148.082 141.592 148.35 141.683 148.625 141.741C149.023 141.826 149.457 141.855 150.034 141.815C150.206 141.803 150.42 141.75 150.553 141.717C150.694 141.681 150.853 141.637 151.008 141.594C151.049 141.722 151.092 141.849 151.135 141.948C151.221 142.15 151.36 142.329 151.451 142.439C151.564 142.574 151.698 142.718 151.843 142.858C152.125 143.129 152.5 143.439 152.889 143.654C153.274 143.867 153.623 143.978 153.914 144.051C154.077 144.093 154.181 144.115 154.261 144.133C154.356 144.153 154.419 144.167 154.511 144.197C154.866 144.311 155.329 144.336 155.651 144.338C155.831 144.339 156.011 144.333 156.17 144.319C156.285 144.309 156.475 144.289 156.652 144.233ZM152.054 141.554C152.154 141.792 152.803 142.464 153.373 142.779C153.765 142.996 154.113 143.074 154.421 143.143C154.561 143.175 154.693 143.205 154.817 143.245C155.215 143.373 156.144 143.355 156.36 143.277C156.39 143.265 156.446 143.254 156.518 143.241C156.961 143.158 158.004 142.963 157.237 141.633C156.668 140.645 156.182 140.803 155.738 140.948C155.488 141.029 155.251 141.106 155.02 140.972C154.921 140.914 154.83 140.866 154.746 140.821C154.279 140.573 153.993 140.421 153.563 139.368C153.581 139.252 153.595 139.12 153.611 138.977C153.681 138.344 153.774 137.508 154.244 136.916C154.335 136.88 154.529 136.847 154.768 136.807C155.157 136.741 155.667 136.654 156.051 136.501C156.669 136.254 157.17 135.942 157.251 135.812C157.364 135.63 157.416 135.453 157.405 135.28C157.39 135.105 157.334 134.946 157.236 134.804C157.136 134.655 157.012 134.536 156.862 134.446C156.749 134.379 156.641 134.328 156.537 134.296C156.428 134.26 156.305 134.243 156.168 134.244C156.026 134.242 155.855 134.261 155.656 134.302C155.607 134.31 155.494 134.376 155.342 134.466C154.87 134.745 154.012 135.251 153.43 134.979C152.661 134.619 152.364 134.067 152.364 133.327C152.364 132.587 152.157 132.026 151.718 131.802C151.279 131.579 150.966 131.967 150.749 132.375C150.532 132.783 150.411 133.151 150.388 133.327C150.384 133.353 150.376 133.385 150.367 133.424C150.313 133.639 150.209 134.055 150.62 134.772C150.902 135.265 151.265 135.38 151.535 135.465C151.728 135.526 151.873 135.572 151.906 135.73C151.755 136.199 151.679 136.505 151.619 136.75C151.511 137.185 151.451 137.427 151.104 138.039C150.561 138.996 148.613 138.606 148.343 138.368C148.251 138.288 148.159 138.089 148.055 137.864C147.85 137.42 147.596 136.872 147.206 136.922C146.681 136.988 146.534 137.482 146.436 137.814C146.424 137.854 146.413 137.892 146.402 137.926C146.299 138.245 146.462 138.817 146.679 139.221C146.896 139.625 147.371 140.306 147.991 140.506C148.075 140.533 148.154 140.56 148.231 140.586C148.717 140.75 149.093 140.878 149.965 140.817C150.111 140.807 150.531 140.69 150.927 140.578C151.254 140.487 151.566 140.399 151.692 140.381C151.725 140.48 151.768 140.632 151.816 140.797C151.896 141.08 151.988 141.402 152.054 141.554ZM148.864 137.523C148.864 137.523 148.869 137.524 148.876 137.528C148.868 137.525 148.864 137.523 148.864 137.523ZM149.098 137.721C149.101 137.725 149.103 137.728 149.103 137.728C149.103 137.728 149.101 137.726 149.098 137.721ZM150.242 137.536C150.242 137.536 150.241 137.537 150.238 137.539C150.24 137.537 150.241 137.536 150.242 137.536ZM149.404 133.15C149.404 133.149 149.404 133.151 149.403 133.153C149.404 133.151 149.404 133.15 149.404 133.15ZM153.803 134.057C153.803 134.057 153.803 134.057 153.804 134.057Z" fill="#90B44B"/>
<path d="M176.884 125.517C178.754 127.223 177.931 128.522 176.911 129.338C175.891 130.154 173.726 129.147 172.691 127.853C171.656 126.559 171.518 124.688 172.538 123.872C173.559 123.056 175.015 123.812 176.884 125.517Z" fill="#90B44B"/>
<path d="M154.189 122.353C153.313 123.566 151.961 123.985 150.797 123.144C149.633 122.303 149.4 120.638 150.276 119.425C151.153 118.212 153.423 117.799 154.587 118.64C155.75 119.482 155.066 121.14 154.189 122.353Z" fill="#90B44B"/>
<path d="M127.244 426.517C129.349 421.079 132.644 416.855 135.311 414.468C135.311 414.468 133.183 402.15 142.849 396.421C152.514 390.692 161.657 393.679 165.123 396.125C167.417 394.714 176.102 392.121 180.89 393.401C185.678 394.682 188.809 398.122 189.813 400.993C193.595 402.33 195.489 406.729 195.489 406.729C198.977 402.408 205.365 399.114 209.493 398.401C214.372 397.558 221.007 397.192 227.595 403.261C234.009 398.047 241.842 395.893 248.376 395.291C254.91 394.689 261.834 396.696 265.55 398.508C269.265 400.319 273.652 402.905 277.17 408.352C285.44 406.923 295.463 411.831 298.906 417.035C302.349 422.239 304.072 432.182 301.752 438.16C305.741 445.289 306.319 448.777 305.467 452.717C304.615 456.657 302.834 459.317 300.353 464.338C303.188 467.071 302.263 467.272 305.02 467.914C307.629 468.521 310.593 466.124 311.706 469.646C312.223 471.28 317.049 472.65 315.945 474.251C314.033 477.025 305.115 479.527 302.038 480.02C300.077 480.335 293.176 479.118 293.176 479.118C293.176 479.118 285.831 495.107 267.361 493.08C257.602 500.361 250.407 506.541 242.302 509.103C234.197 511.665 224.104 508.853 216.525 508.103C212.837 511.366 200.689 516.604 196.779 516.967C192.869 517.33 185.888 515.691 179.914 513.384C174.295 518.831 170.665 521.809 168.535 524.349C167.484 525.602 164.962 527.55 163.791 526.548C160.392 527.934 157.294 528.087 156.631 525.989C156.227 524.711 157.341 520.493 158.547 519.425C160.359 517.822 160.572 515.796 161.229 513.527C162.109 510.486 161.974 509.912 159.409 509.983C155.675 510.088 151.226 508.669 147.416 509.656C143.124 510.769 138.512 510.145 135.929 506.994C132.119 502.346 134.464 502.582 138.354 501.352C141.141 500.471 142.336 498.578 145.053 497.661C148.771 496.407 154.475 496.588 153.078 492.17C151.813 488.169 150.716 480.172 152.53 476.18C152.767 475.66 153.327 474.148 155.247 470.576C154.435 471.922 149.752 473.149 147.988 473.499L147.98 473.5C146.168 473.86 140.141 475.055 134.258 474.121C128.368 473.186 122.555 471.51 119.102 467.501C116.259 464.201 114.292 456.53 116.208 450.749C118.125 444.969 120.519 442.495 123.29 438.871C126.06 435.246 125.139 431.955 127.244 426.517Z" fill="white"/>
<path d="M135.311 414.468C132.644 416.855 129.349 421.079 127.244 426.517C125.139 431.955 126.06 435.246 123.29 438.871C120.519 442.495 118.125 444.969 116.208 450.749C114.292 456.53 116.259 464.201 119.102 467.501C122.555 471.51 128.368 473.186 134.258 474.121C140.149 475.056 146.185 473.857 147.988 473.499C149.791 473.141 154.643 471.867 155.296 470.487C153.336 474.123 152.769 475.655 152.53 476.18C150.716 480.172 151.813 488.169 153.078 492.17C154.475 496.588 148.771 496.407 145.053 497.661C142.336 498.578 141.141 500.471 138.354 501.352C134.464 502.582 132.119 502.346 135.929 506.994C138.512 510.145 143.124 510.769 147.416 509.656C151.226 508.669 155.675 510.088 159.409 509.983C161.974 509.912 162.109 510.486 161.229 513.527C160.572 515.796 160.359 517.822 158.547 519.425C157.341 520.493 156.227 524.711 156.631 525.989C157.294 528.087 160.392 527.934 163.791 526.548C164.962 527.55 167.484 525.602 168.535 524.349C170.665 521.809 174.295 518.831 179.914 513.384C185.888 515.691 192.869 517.33 196.779 516.967C200.689 516.604 212.837 511.366 216.525 508.103C224.104 508.853 234.197 511.665 242.302 509.103C250.407 506.541 257.602 500.361 267.361 493.08C285.831 495.107 293.176 479.118 293.176 479.118C293.176 479.118 300.077 480.335 302.038 480.02C305.115 479.527 314.033 477.025 315.945 474.251C317.049 472.65 312.223 471.28 311.706 469.646C310.593 466.124 307.629 468.521 305.02 467.914C302.263 467.272 303.188 467.071 300.353 464.338C302.834 459.317 304.615 456.657 305.467 452.717C306.319 448.777 305.741 445.289 301.752 438.16C304.072 432.182 302.349 422.239 298.906 417.035C295.463 411.831 285.44 406.923 277.17 408.352C273.652 402.905 269.265 400.319 265.55 398.508C261.834 396.696 254.91 394.689 248.376 395.291C241.842 395.893 234.009 398.047 227.595 403.261C221.007 397.192 214.372 397.558 209.493 398.401C205.365 399.114 198.977 402.408 195.489 406.729C195.489 406.729 193.595 402.33 189.813 400.993C188.809 398.122 185.678 394.682 180.89 393.401C176.102 392.121 167.417 394.714 165.123 396.125C161.657 393.679 152.514 390.692 142.849 396.421C133.183 402.15 135.311 414.468 135.311 414.468Z" stroke="#90B44B" stroke-width="4" stroke-linecap="round"/>
<path d="M197.074 418.677C197.329 419.835 197.05 423.011 196.7 424.054C202.352 422.227 203.828 425.926 207.862 428.255C214.302 431.971 222.094 437.937 221.311 441.731C214.908 445.419 211.307 445.586 205.424 445.145C199.541 444.703 193.356 441.654 192.616 437.368" stroke="#90B44B" stroke-width="4" stroke-linecap="round"/>
<path d="M136.013 450.846C136.167 450.867 136.32 450.909 136.471 450.968C136.703 451.058 136.907 451.196 137.08 451.376C137.261 451.562 137.386 451.786 137.451 452.037L137.452 452.037L137.454 452.049C137.523 452.341 137.479 452.631 137.369 452.902C137.317 453.031 137.22 453.14 137.16 453.204C137.085 453.284 136.991 453.371 136.888 453.459C136.679 453.636 136.407 453.836 136.102 454.023C135.771 454.227 135.354 454.388 135.025 454.506C134.935 454.539 134.86 454.565 134.79 454.59C134.717 454.616 134.651 454.639 134.583 454.664C134.553 454.675 134.526 454.685 134.502 454.694C134.386 454.971 134.34 455.298 134.332 455.654C134.328 455.86 134.337 456.064 134.348 456.265C134.351 456.314 134.354 456.363 134.357 456.413C134.363 456.508 134.368 456.602 134.372 456.692C134.672 457.154 134.859 457.328 135.005 457.42C135.085 457.47 135.17 457.507 135.291 457.549C135.325 457.561 135.371 457.576 135.424 457.594C135.525 457.627 135.649 457.668 135.76 457.71C135.767 457.712 135.77 457.713 135.779 457.711C135.794 457.71 135.823 457.703 135.878 457.679C135.93 457.656 135.982 457.629 136.056 457.59C136.066 457.585 136.075 457.58 136.085 457.575C136.166 457.532 136.271 457.478 136.385 457.433C136.628 457.338 136.938 457.276 137.296 457.392C137.635 457.502 137.952 457.752 138.268 458.133C138.586 458.515 138.777 458.888 138.8 459.258C138.826 459.656 138.654 459.958 138.441 460.165C138.241 460.358 137.999 460.476 137.828 460.548C137.75 460.581 137.676 460.608 137.622 460.628C137.615 460.63 137.608 460.633 137.602 460.635C137.559 460.651 137.542 460.659 137.541 460.659C137.429 460.721 137.28 460.766 137.162 460.797C137.024 460.833 136.864 460.867 136.699 460.895C136.388 460.947 135.991 460.988 135.703 460.947C135.591 460.932 135.495 460.927 135.374 460.921C135.287 460.917 135.187 460.912 135.059 460.903C134.786 460.881 134.468 460.837 134.107 460.712C133.743 460.585 133.361 460.369 133.057 460.163C132.903 460.059 132.762 459.952 132.645 459.852C132.541 459.762 132.42 459.648 132.343 459.529C132.25 459.386 132.13 459.143 132.031 458.939C132.009 458.895 131.989 458.853 131.969 458.811C131.885 458.851 131.795 458.894 131.702 458.938C131.67 458.954 131.637 458.969 131.604 458.985C131.433 459.066 131.258 459.149 131.108 459.216C130.973 459.276 130.814 459.344 130.697 459.372C130.171 459.501 129.786 459.539 129.434 459.525C129.186 459.516 128.951 459.479 128.728 459.444C128.654 459.432 128.582 459.421 128.51 459.411C128.067 459.348 127.678 459.121 127.381 458.89C127.079 458.655 126.835 458.386 126.675 458.181C126.508 457.968 126.35 457.706 126.238 457.443C126.133 457.197 126.037 456.877 126.08 456.574C126.083 456.555 126.086 456.53 126.089 456.499C126.106 456.352 126.136 456.086 126.22 455.852C126.335 455.533 126.574 455.185 127.05 455.039C127.395 454.933 127.694 455.059 127.896 455.202C128.09 455.34 128.252 455.532 128.376 455.695C128.458 455.803 128.544 455.928 128.616 456.032C128.65 456.082 128.681 456.126 128.707 456.163C128.753 456.228 128.789 456.275 128.818 456.309C128.82 456.311 128.822 456.314 128.824 456.316C128.832 456.318 128.841 456.32 128.851 456.322C128.908 456.334 128.989 456.345 129.089 456.351C129.29 456.364 129.541 456.357 129.793 456.317C130.349 456.229 130.672 456.023 130.757 455.786C130.932 455.3 130.972 455.076 130.997 454.82C131.003 454.748 131.009 454.668 131.016 454.577C131.029 454.388 131.046 454.149 131.084 453.832C131.059 453.828 131.034 453.824 131.01 453.82C130.675 453.767 130.223 453.637 129.809 453.136C129.451 452.703 129.292 452.322 129.235 451.994C129.207 451.833 129.206 451.697 129.211 451.594C129.213 451.555 129.215 451.518 129.217 451.492C129.218 451.486 129.218 451.481 129.219 451.476C129.22 451.462 129.22 451.454 129.22 451.452C129.21 451.189 129.286 450.742 129.439 450.277C129.517 450.042 129.641 449.735 129.857 449.507C129.971 449.386 130.122 449.274 130.316 449.216C130.514 449.157 130.719 449.165 130.919 449.227C131.674 449.46 132.026 450.238 132.16 451.012C132.212 451.31 132.31 451.522 132.448 451.678C132.585 451.833 132.794 451.969 133.132 452.061C133.198 452.079 133.304 452.078 133.466 452.016C133.627 451.956 133.803 451.852 133.982 451.723C134.16 451.596 134.322 451.459 134.463 451.34L134.475 451.329C134.538 451.276 134.602 451.222 134.656 451.179C134.685 451.156 134.718 451.13 134.753 451.107C134.778 451.09 134.832 451.055 134.9 451.03C135.106 450.949 135.304 450.89 135.489 450.86C135.664 450.829 135.84 450.821 136.013 450.846ZM136.013 450.846C136.014 450.846 136.015 450.846 136.016 450.846L135.944 451.341L136.011 450.846C136.012 450.846 136.012 450.846 136.013 450.846Z" fill="#90B44B" stroke="#90B44B"/>
<path d="M154.501 439.227C156.633 440.59 156.044 442.009 155.177 442.987C154.311 443.965 152.006 443.341 150.766 442.242C149.526 441.144 149.071 439.323 149.938 438.345C150.804 437.367 152.368 437.864 154.501 439.227Z" fill="#90B44B"/>
<path d="M131.598 439.972C130.941 441.316 129.68 441.96 128.39 441.329C127.1 440.699 126.587 439.098 127.244 437.753C127.901 436.409 130.067 435.615 131.358 436.246C132.648 436.877 132.255 438.628 131.598 439.972Z" fill="#90B44B"/>
<path d="M100.626 759.233C101.92 753.547 104.568 748.89 106.86 746.142C106.86 746.142 102.969 734.263 111.702 727.193C120.435 720.123 129.914 721.753 133.699 723.67C135.763 721.942 143.981 718.117 148.904 718.689C153.827 719.262 157.424 722.212 158.833 724.907C162.77 725.682 165.281 729.759 165.281 729.759C168.106 724.979 173.949 720.794 177.93 719.49C182.634 717.949 189.146 716.624 196.545 721.674C202.136 715.585 209.573 712.318 215.951 710.775C222.328 709.232 229.471 710.215 233.41 711.468C237.348 712.721 242.064 714.644 246.334 719.524C254.31 716.911 264.938 720.314 269.099 724.964C273.261 729.614 276.407 739.202 274.978 745.453C279.958 751.928 281.036 755.295 280.764 759.317C280.492 763.339 279.116 766.23 277.389 771.557C280.59 773.851 279.704 774.183 282.525 774.419C285.194 774.641 287.779 771.84 289.392 775.163C290.14 776.705 295.114 777.361 294.254 779.105C292.764 782.126 284.303 785.895 281.33 786.83C279.436 787.425 272.43 787.221 272.43 787.221C272.43 787.221 267.482 804.107 248.913 804.779C240.312 813.397 234.089 820.555 226.441 824.265C218.794 827.975 208.399 826.657 200.792 827.013C197.616 830.776 186.355 837.721 182.539 838.646C178.723 839.572 171.578 838.963 165.333 837.546C160.563 843.751 157.404 847.223 155.664 850.045C154.806 851.438 152.593 853.73 151.289 852.909C148.127 854.772 145.084 855.373 144.123 853.393C143.538 852.187 144.029 847.853 145.068 846.621C146.628 844.772 146.545 842.737 146.866 840.396C147.296 837.261 147.079 836.712 144.552 837.154C140.872 837.799 136.264 837.04 132.638 838.569C128.552 840.292 123.899 840.344 120.886 837.6C116.443 833.554 118.797 833.448 122.468 831.667C125.098 830.391 126.006 828.344 128.561 827.043C132.058 825.263 137.728 824.616 135.705 820.447C133.874 816.672 131.628 808.918 132.845 804.705C133.003 804.156 133.338 802.579 134.721 798.767C134.112 800.216 129.656 802.109 127.962 802.711L127.955 802.714C126.214 803.332 120.423 805.388 114.468 805.317C108.504 805.246 102.51 804.43 98.5119 800.965C95.2201 798.111 92.162 790.806 93.2199 784.809C94.2777 778.812 96.2886 776.017 98.5041 772.029C100.72 768.041 99.3316 764.918 100.626 759.233Z" fill="white"/>
<path d="M106.86 746.142C104.568 748.89 101.92 753.547 100.626 759.233C99.3316 764.918 100.72 768.041 98.5041 772.029C96.2886 776.017 94.2777 778.812 93.2199 784.809C92.162 790.806 95.2201 798.111 98.5119 800.965C102.51 804.43 108.504 805.246 114.468 805.317C120.432 805.388 126.23 803.326 127.962 802.711C129.694 802.096 134.311 800.132 134.756 798.671C133.344 802.553 133.005 804.152 132.845 804.705C131.628 808.918 133.874 816.672 135.705 820.447C137.728 824.616 132.058 825.263 128.561 827.043C126.006 828.344 125.098 830.391 122.468 831.667C118.797 833.448 116.443 833.554 120.886 837.6C123.899 840.344 128.552 840.292 132.638 838.569C136.264 837.04 140.872 837.799 144.552 837.154C147.079 836.712 147.296 837.261 146.866 840.396C146.545 842.737 146.628 844.772 145.068 846.621C144.029 847.853 143.538 852.187 144.123 853.393C145.084 855.373 148.127 854.772 151.289 852.909C152.593 853.73 154.806 851.438 155.664 850.045C157.404 847.223 160.563 843.751 165.333 837.546C171.578 838.963 178.723 839.572 182.539 838.646C186.355 837.721 197.616 830.776 200.792 827.013C208.399 826.657 218.794 827.975 226.441 824.265C234.089 820.555 240.312 813.397 248.913 804.779C267.482 804.107 272.43 787.221 272.43 787.221C272.43 787.221 279.436 787.425 281.33 786.83C284.303 785.895 292.764 782.126 294.254 779.105C295.114 777.361 290.14 776.705 289.392 775.163C287.779 771.84 285.194 774.641 282.525 774.419C279.704 774.183 280.59 773.851 277.389 771.557C279.116 766.23 280.492 763.339 280.764 759.317C281.036 755.295 279.958 751.928 274.978 745.453C276.407 739.202 273.261 729.614 269.099 724.964C264.938 720.314 254.31 716.911 246.334 719.524C242.064 714.644 237.348 712.721 233.41 711.468C229.471 710.215 222.328 709.232 215.951 710.775C209.573 712.318 202.136 715.585 196.545 721.674C189.146 716.624 182.634 717.949 177.93 719.49C173.949 720.794 168.106 724.979 165.281 729.759C165.281 729.759 162.77 725.682 158.833 724.907C157.424 722.212 153.827 719.262 148.904 718.689C143.981 718.117 135.763 721.942 133.699 723.67C129.914 721.753 120.435 720.123 111.702 727.193C102.969 734.263 106.86 746.142 106.86 746.142Z" stroke="#90B44B" stroke-width="4" stroke-linecap="round"/>
<path d="M168.581 741.352C169.001 742.461 169.186 745.644 168.99 746.727C174.318 744.099 176.315 747.546 180.644 749.264C187.554 752.008 196.129 756.782 195.904 760.648C190.104 765.226 186.565 765.914 180.68 766.329C174.795 766.745 168.233 764.626 166.88 760.492" stroke="#90B44B" stroke-width="4" stroke-linecap="round"/>
<path d="M112.829 782.033C112.984 782.032 113.142 782.052 113.3 782.088C113.543 782.143 113.765 782.25 113.961 782.403C114.168 782.561 114.324 782.764 114.425 783.004L114.425 783.004L114.43 783.015C114.54 783.293 114.539 783.587 114.469 783.872C114.436 784.006 114.356 784.128 114.306 784.201C114.243 784.291 114.163 784.39 114.073 784.492C113.893 784.697 113.652 784.935 113.378 785.164C113.079 785.414 112.691 785.633 112.382 785.798C112.298 785.843 112.227 785.881 112.162 785.915C112.094 785.951 112.032 785.984 111.968 786.018C111.94 786.033 111.915 786.047 111.892 786.06C111.818 786.351 111.819 786.682 111.863 787.034C111.889 787.238 111.927 787.44 111.967 787.636C111.977 787.684 111.987 787.733 111.998 787.782C112.017 787.875 112.036 787.968 112.054 788.056C112.417 788.47 112.627 788.614 112.785 788.684C112.871 788.722 112.961 788.746 113.087 788.771C113.122 788.778 113.17 788.786 113.225 788.796C113.329 788.814 113.458 788.836 113.574 788.861C113.581 788.863 113.584 788.863 113.593 788.86C113.607 788.857 113.635 788.846 113.686 788.814C113.734 788.784 113.782 788.749 113.85 788.7C113.858 788.694 113.867 788.687 113.876 788.681C113.95 788.626 114.046 788.558 114.153 788.497C114.378 788.368 114.676 788.261 115.047 788.324C115.399 788.384 115.749 788.586 116.117 788.916C116.487 789.248 116.73 789.59 116.807 789.953C116.889 790.342 116.764 790.667 116.582 790.902C116.413 791.122 116.19 791.274 116.031 791.37C115.959 791.413 115.89 791.451 115.839 791.479C115.833 791.482 115.827 791.486 115.821 791.489C115.78 791.511 115.765 791.521 115.763 791.521C115.662 791.599 115.521 791.665 115.408 791.713C115.278 791.769 115.124 791.825 114.964 791.877C114.664 791.973 114.278 792.072 113.987 792.073C113.874 792.074 113.778 792.083 113.657 792.095C113.571 792.104 113.471 792.113 113.343 792.122C113.07 792.141 112.749 792.143 112.373 792.071C111.995 791.999 111.585 791.841 111.256 791.681C111.088 791.6 110.932 791.514 110.802 791.432C110.686 791.359 110.55 791.264 110.457 791.157C110.344 791.029 110.19 790.806 110.062 790.618C110.035 790.578 110.008 790.539 109.983 790.501C109.905 790.552 109.822 790.608 109.737 790.665C109.707 790.685 109.677 790.705 109.646 790.726C109.49 790.831 109.328 790.938 109.189 791.026C109.065 791.105 108.917 791.195 108.806 791.24C108.303 791.444 107.928 791.537 107.578 791.575C107.332 791.601 107.093 791.599 106.868 791.597C106.793 791.596 106.719 791.595 106.647 791.595C106.199 791.597 105.782 791.43 105.455 791.244C105.122 791.055 104.841 790.824 104.653 790.645C104.457 790.458 104.263 790.222 104.114 789.978C103.975 789.75 103.833 789.447 103.831 789.141C103.831 789.122 103.831 789.096 103.83 789.066C103.825 788.918 103.816 788.65 103.866 788.406C103.933 788.074 104.119 787.696 104.569 787.482C104.895 787.327 105.209 787.408 105.429 787.52C105.642 787.629 105.83 787.796 105.976 787.939C106.072 788.034 106.175 788.145 106.262 788.238C106.303 788.281 106.34 788.321 106.371 788.354C106.426 788.411 106.469 788.453 106.502 788.482C106.505 788.484 106.507 788.486 106.509 788.488C106.517 788.488 106.526 788.489 106.537 788.49C106.595 788.493 106.676 788.492 106.776 788.484C106.977 788.468 107.225 788.425 107.468 788.349C108.005 788.18 108.295 787.93 108.345 787.683C108.447 787.177 108.455 786.95 108.442 786.693C108.438 786.621 108.432 786.541 108.426 786.449C108.412 786.26 108.394 786.022 108.385 785.702C108.36 785.702 108.334 785.702 108.31 785.702C107.971 785.697 107.505 785.634 107.023 785.199C106.606 784.822 106.393 784.468 106.289 784.152C106.238 783.996 106.218 783.863 106.207 783.76C106.204 783.721 106.201 783.684 106.199 783.658C106.199 783.652 106.198 783.647 106.198 783.642C106.197 783.628 106.196 783.62 106.196 783.618C106.148 783.359 106.159 782.906 106.242 782.424C106.285 782.18 106.363 781.859 106.544 781.601C106.639 781.465 106.773 781.332 106.956 781.247C107.143 781.16 107.347 781.138 107.554 781.17C108.335 781.291 108.797 782.01 109.041 782.756C109.135 783.044 109.263 783.239 109.422 783.374C109.58 783.507 109.807 783.611 110.154 783.654C110.223 783.662 110.327 783.645 110.479 783.561C110.629 783.477 110.788 783.349 110.947 783.196C111.104 783.044 111.245 782.885 111.367 782.747L111.378 782.735C111.432 782.673 111.487 782.61 111.535 782.56C111.56 782.532 111.589 782.503 111.62 782.475C111.643 782.454 111.691 782.412 111.754 782.377C111.947 782.267 112.134 782.179 112.312 782.123C112.481 782.067 112.655 782.034 112.829 782.033ZM112.829 782.033C112.83 782.033 112.831 782.033 112.832 782.033L112.833 782.533L112.827 782.033C112.828 782.033 112.829 782.033 112.829 782.033Z" fill="#90B44B" stroke="#90B44B"/>
<path d="M129.437 767.857C131.745 768.896 131.367 770.386 130.652 771.479C129.936 772.573 127.565 772.289 126.179 771.382C124.793 770.475 124.079 768.739 124.795 767.646C125.51 766.553 127.129 766.818 129.437 767.857Z" fill="#90B44B"/>
<path d="M106.884 771.915C106.429 773.34 105.274 774.16 103.906 773.723C102.539 773.286 101.799 771.776 102.254 770.351C102.71 768.925 104.738 767.826 106.106 768.263C107.474 768.7 107.339 770.489 106.884 771.915Z" fill="#90B44B"/>
<path d="M78.1374 1084.24C78.4933 1078.42 80.3506 1073.4 82.1675 1070.31C82.1675 1070.31 76.4026 1059.22 83.8744 1050.83C91.3461 1042.44 100.964 1042.51 105.009 1043.79C106.766 1041.75 114.255 1036.64 119.206 1036.41C124.156 1036.18 128.184 1038.5 130.011 1040.94C134.022 1041.06 137.161 1044.68 137.161 1044.68C139.173 1039.5 144.261 1034.43 147.978 1032.49C152.37 1030.21 158.582 1027.85 166.701 1031.63C171.231 1024.72 178.041 1020.29 184.084 1017.73C190.126 1015.18 197.334 1014.99 201.424 1015.59C205.514 1016.18 210.479 1017.32 215.483 1021.44C222.93 1017.57 233.969 1019.21 238.829 1023.12C243.689 1027.03 248.347 1035.99 247.951 1042.38C253.915 1047.97 255.524 1051.12 255.908 1055.13C256.291 1059.14 255.402 1062.22 254.561 1067.75C258.092 1069.5 257.271 1069.97 260.092 1069.74C262.763 1069.53 264.86 1066.35 266.989 1069.37C267.977 1070.77 272.992 1070.61 272.426 1072.47C271.445 1075.69 263.707 1080.78 260.925 1082.19C259.152 1083.08 252.206 1084.01 252.206 1084.01C252.206 1084.01 250.06 1101.48 231.846 1105.15C224.756 1115.05 219.774 1123.12 212.829 1128.02C205.884 1132.92 195.414 1133.31 187.964 1134.89C185.441 1139.12 175.454 1147.8 171.839 1149.33C168.223 1150.86 161.074 1151.42 154.682 1151.03C150.98 1157.93 148.425 1161.87 147.166 1164.93C146.545 1166.45 144.733 1169.07 143.313 1168.47C140.495 1170.82 137.589 1171.9 136.321 1170.11C135.548 1169.01 135.33 1164.65 136.155 1163.27C137.395 1161.19 136.983 1159.2 136.92 1156.84C136.837 1153.67 136.534 1153.17 134.112 1154.01C130.585 1155.24 125.915 1155.24 122.585 1157.34C118.832 1159.7 114.249 1160.51 110.831 1158.29C105.791 1155.02 108.096 1154.53 111.431 1152.18C113.819 1150.49 114.383 1148.32 116.694 1146.63C119.856 1144.3 125.345 1142.75 122.674 1138.96C120.255 1135.53 116.782 1128.24 117.3 1123.89C117.368 1123.32 117.443 1121.71 118.189 1117.73C117.823 1119.26 113.733 1121.85 112.158 1122.71L112.152 1122.72C110.534 1123.61 105.154 1126.58 99.2651 1127.47C93.3684 1128.37 87.3214 1128.53 82.8149 1125.76C79.1042 1123.48 74.9026 1116.77 74.9745 1110.68C75.0464 1104.59 76.5776 1101.51 78.1176 1097.21C79.6575 1092.92 77.7816 1090.06 78.1374 1084.24Z" fill="white"/>
<path d="M82.1675 1070.31C80.3506 1073.4 78.4933 1078.42 78.1374 1084.24C77.7816 1090.06 79.6575 1092.92 78.1176 1097.21C76.5776 1101.51 75.0464 1104.59 74.9745 1110.68C74.9026 1116.77 79.1042 1123.48 82.8149 1125.76C87.3214 1128.53 93.3684 1128.37 99.2651 1127.47C105.162 1126.58 110.549 1123.6 112.158 1122.71C113.768 1121.83 118.005 1119.14 118.208 1117.63C117.444 1121.69 117.368 1123.32 117.3 1123.89C116.782 1128.24 120.255 1135.53 122.674 1138.96C125.345 1142.75 119.856 1144.3 116.694 1146.63C114.383 1148.32 113.819 1150.49 111.431 1152.18C108.096 1154.53 105.791 1155.02 110.831 1158.29C114.249 1160.51 118.832 1159.7 122.585 1157.34C125.915 1155.24 130.585 1155.24 134.112 1154.01C136.534 1153.17 136.837 1153.67 136.92 1156.84C136.983 1159.2 137.395 1161.19 136.155 1163.27C135.33 1164.65 135.548 1169.01 136.321 1170.11C137.589 1171.9 140.495 1170.82 143.313 1168.47C144.733 1169.07 146.545 1166.45 147.166 1164.93C148.425 1161.87 150.98 1157.93 154.682 1151.03C161.074 1151.42 168.223 1150.86 171.839 1149.33C175.454 1147.8 185.441 1139.12 187.964 1134.89C195.414 1133.31 205.884 1132.92 212.829 1128.02C219.774 1123.12 224.756 1115.05 231.846 1105.15C250.06 1101.48 252.206 1084.01 252.206 1084.01C252.206 1084.01 259.152 1083.08 260.925 1082.19C263.707 1080.78 271.445 1075.69 272.426 1072.47C272.992 1070.61 267.977 1070.77 266.989 1069.37C264.86 1066.35 262.763 1069.53 260.092 1069.74C257.271 1069.97 258.092 1069.5 254.561 1067.75C255.402 1062.22 256.291 1059.14 255.908 1055.13C255.524 1051.12 253.915 1047.97 247.951 1042.38C248.347 1035.99 243.689 1027.03 238.829 1023.12C233.969 1019.21 222.93 1017.57 215.483 1021.44C210.479 1017.32 205.514 1016.18 201.424 1015.59C197.334 1014.99 190.126 1015.18 184.084 1017.73C178.041 1020.29 171.231 1024.72 166.701 1031.63C158.582 1027.85 152.37 1030.21 147.978 1032.49C144.261 1034.43 139.173 1039.5 137.161 1044.68C137.161 1044.68 134.022 1041.06 130.011 1040.94C128.184 1038.5 124.156 1036.18 119.206 1036.41C114.255 1036.64 106.766 1041.75 105.009 1043.79C100.964 1042.51 91.3461 1042.44 83.8744 1050.83C76.4026 1059.22 82.1675 1070.31 82.1675 1070.31Z" stroke="#90B44B" stroke-width="4" stroke-linecap="round"/>
<path d="M142.296 1055.58C142.89 1056.61 143.588 1059.72 143.571 1060.82C148.402 1057.36 150.931 1060.44 155.482 1061.44C162.745 1063.02 171.98 1066.34 172.385 1070.2C167.403 1075.65 164.022 1076.9 158.283 1078.27C152.543 1079.63 145.724 1078.6 143.719 1074.74" stroke="#90B44B" stroke-width="4" stroke-linecap="round"/>
<path d="M93.8747 1104.76C94.0272 1104.74 94.186 1104.73 94.3482 1104.74C94.5967 1104.75 94.8326 1104.82 95.0516 1104.94C95.2811 1105.07 95.4675 1105.24 95.6065 1105.46L95.6067 1105.46L95.613 1105.47C95.7667 1105.73 95.8135 1106.02 95.7904 1106.31C95.7795 1106.45 95.7205 1106.58 95.6826 1106.66C95.6354 1106.76 95.5728 1106.87 95.5006 1106.99C95.3557 1107.22 95.1568 1107.49 94.9237 1107.76C94.6693 1108.06 94.3213 1108.34 94.0439 1108.55C93.9682 1108.61 93.9041 1108.66 93.8453 1108.7C93.7836 1108.75 93.7277 1108.79 93.6701 1108.83C93.6451 1108.85 93.6226 1108.87 93.6027 1108.89C93.5762 1109.19 93.6314 1109.51 93.732 1109.85C93.7902 1110.05 93.8605 1110.24 93.9321 1110.43C93.9496 1110.48 93.9675 1110.52 93.9856 1110.57C94.0197 1110.66 94.0539 1110.75 94.0852 1110.83C94.511 1111.18 94.7419 1111.29 94.9083 1111.33C94.9999 1111.36 95.0923 1111.36 95.2204 1111.37C95.2565 1111.37 95.3051 1111.37 95.3609 1111.37C95.4666 1111.37 95.5976 1111.37 95.716 1111.38C95.7232 1111.38 95.7261 1111.38 95.7344 1111.37C95.748 1111.37 95.7742 1111.35 95.8193 1111.31C95.8618 1111.28 95.9034 1111.23 95.9621 1111.17C95.9693 1111.17 95.9768 1111.16 95.9846 1111.15C96.0492 1111.09 96.1322 1111 96.2279 1110.93C96.4298 1110.76 96.7065 1110.61 97.0831 1110.61C97.4401 1110.61 97.8173 1110.75 98.2341 1111.02C98.6531 1111.29 98.948 1111.59 99.0829 1111.93C99.2275 1112.3 99.1561 1112.64 99.0155 1112.9C98.8841 1113.15 98.6886 1113.34 98.5473 1113.46C98.4828 1113.51 98.4209 1113.56 98.3757 1113.59C98.3699 1113.6 98.3643 1113.6 98.3591 1113.61C98.3225 1113.64 98.309 1113.65 98.3075 1113.65C98.22 1113.74 98.092 1113.83 97.9883 1113.9C97.8685 1113.97 97.7256 1114.05 97.5769 1114.13C97.2961 1114.27 96.9313 1114.43 96.6444 1114.48C96.533 1114.5 96.4399 1114.52 96.3225 1114.56C96.2383 1114.58 96.1416 1114.6 96.0169 1114.63C95.7504 1114.7 95.4341 1114.75 95.0515 1114.74C94.6666 1114.73 94.2367 1114.64 93.8853 1114.54C93.707 1114.48 93.5392 1114.43 93.3977 1114.37C93.2716 1114.31 93.1219 1114.24 93.0122 1114.15C92.88 1114.04 92.6919 1113.85 92.5353 1113.68C92.502 1113.65 92.4694 1113.61 92.438 1113.58C92.37 1113.64 92.2972 1113.71 92.2221 1113.78C92.1958 1113.81 92.1692 1113.83 92.1425 1113.86C92.0049 1113.98 91.8629 1114.12 91.74 1114.23C91.6299 1114.32 91.4986 1114.44 91.3963 1114.5C90.9338 1114.78 90.5781 1114.93 90.2391 1115.03C90.0002 1115.09 89.7647 1115.13 89.542 1115.16C89.4679 1115.18 89.3951 1115.19 89.3242 1115.2C88.8825 1115.27 88.4436 1115.18 88.0903 1115.05C87.7315 1114.91 87.4164 1114.73 87.202 1114.59C86.9784 1114.43 86.7484 1114.23 86.5621 1114.01C86.3877 1113.81 86.1987 1113.54 86.1477 1113.23C86.1446 1113.22 86.1396 1113.19 86.1337 1113.16C86.1051 1113.02 86.0533 1112.75 86.0626 1112.5C86.0752 1112.16 86.1969 1111.76 86.6065 1111.48C86.9031 1111.27 87.226 1111.3 87.4614 1111.38C87.6891 1111.45 87.9014 1111.58 88.0686 1111.7C88.1794 1111.78 88.2992 1111.87 88.3998 1111.95C88.4471 1111.98 88.4902 1112.02 88.5261 1112.05C88.5902 1112.09 88.6388 1112.13 88.676 1112.15C88.6789 1112.15 88.6817 1112.15 88.6842 1112.16C88.6918 1112.15 88.701 1112.15 88.712 1112.15C88.7696 1112.15 88.8497 1112.13 88.9472 1112.11C89.1425 1112.06 89.3799 1111.98 89.6073 1111.86C90.1104 1111.61 90.3564 1111.32 90.3656 1111.06C90.3844 1110.55 90.3549 1110.32 90.3004 1110.07C90.2851 1110 90.2663 1109.92 90.2448 1109.83C90.2004 1109.65 90.1444 1109.42 90.0836 1109.1C90.0591 1109.11 90.0338 1109.11 90.0097 1109.11C89.674 1109.16 89.2041 1109.18 88.658 1108.83C88.1852 1108.52 87.9176 1108.21 87.7641 1107.91C87.6887 1107.77 87.647 1107.64 87.6201 1107.54C87.6101 1107.5 87.6013 1107.46 87.5954 1107.44C87.5939 1107.43 87.5927 1107.43 87.5916 1107.42C87.5882 1107.41 87.5862 1107.4 87.5855 1107.4C87.496 1107.15 87.4335 1106.7 87.438 1106.21C87.4404 1105.97 87.4656 1105.64 87.6021 1105.35C87.6742 1105.2 87.7845 1105.05 87.9517 1104.94C88.1219 1104.82 88.3197 1104.77 88.5293 1104.76C89.3198 1104.76 89.8913 1105.39 90.2536 1106.09C90.3933 1106.36 90.5508 1106.53 90.7298 1106.64C90.9076 1106.74 91.1483 1106.81 91.4976 1106.79C91.5662 1106.79 91.6668 1106.76 91.8028 1106.65C91.9376 1106.54 92.0737 1106.39 92.2057 1106.21C92.3363 1106.04 92.4495 1105.86 92.547 1105.7L92.5557 1105.69C92.5994 1105.62 92.6437 1105.55 92.6823 1105.49C92.7031 1105.46 92.7271 1105.43 92.7528 1105.39C92.7721 1105.37 92.8124 1105.32 92.8693 1105.28C93.0418 1105.14 93.2123 1105.02 93.379 1104.93C93.5365 1104.85 93.7022 1104.79 93.8747 1104.76ZM93.8747 1104.76C93.8756 1104.76 93.8765 1104.76 93.8775 1104.76L93.9591 1105.25L93.8721 1104.76C93.873 1104.76 93.8739 1104.76 93.8747 1104.76Z" fill="#90B44B" stroke="#90B44B"/>
<path d="M107.965 1088.08C110.411 1088.73 110.28 1090.26 109.751 1091.46C109.222 1092.65 106.837 1092.76 105.322 1092.09C103.807 1091.42 102.821 1089.82 103.35 1088.63C103.879 1087.43 105.52 1087.43 107.965 1088.08Z" fill="#90B44B"/>
<path d="M86.3681 1095.74C86.1497 1097.22 85.1436 1098.22 83.7229 1098.01C82.3022 1097.8 81.3276 1096.43 81.546 1094.95C81.7644 1093.47 83.5878 1092.05 85.0085 1092.26C86.4291 1092.47 86.5865 1094.26 86.3681 1095.74Z" fill="#90B44B"/>
<path d="M64.5712 1359.4C67.673 1354.47 71.7113 1350.95 74.784 1349.11C74.784 1349.11 75.0404 1336.61 85.6201 1332.83C96.1999 1329.05 104.606 1333.72 107.544 1336.78C110.064 1335.83 119.084 1334.94 123.54 1337.11C127.997 1339.28 130.416 1343.25 130.854 1346.26C134.314 1348.29 135.335 1352.97 135.335 1352.97C139.582 1349.39 146.48 1347.38 150.668 1347.46C155.618 1347.56 162.202 1348.47 167.514 1355.68C174.804 1351.78 182.903 1351.16 189.432 1351.81C195.961 1352.46 202.377 1355.75 205.68 1358.24C208.982 1360.72 212.797 1364.1 215.213 1370.12C223.604 1370.29 232.509 1377.01 234.898 1382.78C237.288 1388.54 237.085 1398.63 233.67 1404.06C236.228 1411.82 236.132 1415.35 234.546 1419.06C232.959 1422.76 230.704 1425.04 227.313 1429.49C229.575 1432.71 228.629 1432.74 231.213 1433.89C233.659 1434.98 237.025 1433.19 237.447 1436.86C237.643 1438.57 242.121 1440.83 240.732 1442.19C238.327 1444.55 229.096 1445.31 225.981 1445.21C223.996 1445.14 217.452 1442.63 217.452 1442.63C217.452 1442.63 207.198 1456.93 189.452 1451.43C178.485 1456.72 170.245 1461.41 161.8 1462.39C153.356 1463.36 143.983 1458.68 136.686 1456.5C132.444 1459 119.52 1461.83 115.613 1461.44C111.705 1461.05 105.164 1458.11 99.7389 1454.71C93.1851 1458.99 89.0548 1461.22 86.4802 1463.31C85.2097 1464.34 82.3634 1465.77 81.4041 1464.56C77.8035 1465.28 74.7331 1464.84 74.4814 1462.65C74.3281 1461.32 76.2248 1457.39 77.6126 1456.57C79.6966 1455.34 80.2907 1453.39 81.3677 1451.29C82.8106 1448.48 82.7876 1447.89 80.2561 1447.47C76.5706 1446.86 72.4728 1444.62 68.5452 1444.86C64.1191 1445.14 59.711 1443.65 57.7747 1440.06C54.9193 1434.77 57.1761 1435.45 61.23 1434.99C64.1337 1434.65 65.6672 1433.02 68.5092 1432.64C72.3976 1432.11 77.9626 1433.38 77.4326 1428.77C76.9527 1424.61 77.3976 1416.55 79.939 1412.97C80.2701 1412.51 81.1076 1411.13 83.6734 1407.99C82.6192 1409.16 77.7884 1409.47 75.9902 1409.48L75.9826 1409.48C74.1351 1409.48 67.9905 1409.51 62.3935 1407.47C56.7887 1405.43 51.4016 1402.68 48.775 1398.09C46.6121 1394.31 46.1418 1386.4 49.1234 1381.09C52.1051 1375.78 54.9272 1373.81 58.3368 1370.78C61.7464 1367.75 61.4694 1364.34 64.5712 1359.4Z" fill="white"/>
<path d="M74.784 1349.11C71.7113 1350.95 67.673 1354.47 64.5712 1359.4C61.4694 1364.34 61.7464 1367.75 58.3368 1370.78C54.9272 1373.81 52.1051 1375.78 49.1234 1381.09C46.1418 1386.4 46.6121 1394.31 48.775 1398.09C51.4016 1402.68 56.7887 1405.43 62.3935 1407.47C67.9983 1409.51 74.1521 1409.48 75.9902 1409.48C77.8283 1409.47 82.8347 1409.14 83.7378 1407.91C81.1216 1411.11 80.2729 1412.5 79.939 1412.97C77.3976 1416.55 76.9527 1424.61 77.4326 1428.77C77.9626 1433.38 72.3976 1432.11 68.5092 1432.64C65.6672 1433.02 64.1337 1434.65 61.23 1434.99C57.1761 1435.45 54.9193 1434.77 57.7747 1440.06C59.711 1443.65 64.1191 1445.14 68.5452 1444.86C72.4728 1444.62 76.5706 1446.86 80.2561 1447.47C82.7876 1447.89 82.8106 1448.48 81.3677 1451.29C80.2907 1453.39 79.6966 1455.34 77.6126 1456.57C76.2248 1457.39 74.3281 1461.32 74.4814 1462.65C74.7331 1464.84 77.8035 1465.28 81.4041 1464.56C82.3634 1465.77 85.2097 1464.34 86.4802 1463.31C89.0548 1461.22 93.1851 1458.99 99.7389 1454.71C105.164 1458.11 111.705 1461.05 115.613 1461.44C119.52 1461.83 132.444 1459 136.686 1456.5C143.983 1458.68 153.356 1463.36 161.8 1462.39C170.245 1461.41 178.485 1456.72 189.452 1451.43C207.198 1456.93 217.452 1442.63 217.452 1442.63C217.452 1442.63 223.996 1445.14 225.981 1445.21C229.096 1445.31 238.327 1444.55 240.732 1442.19C242.121 1440.83 237.643 1438.57 237.447 1436.86C237.025 1433.19 233.659 1434.98 231.213 1433.89C228.629 1432.74 229.575 1432.71 227.313 1429.49C230.704 1425.04 232.959 1422.76 234.546 1419.06C236.132 1415.35 236.228 1411.82 233.67 1404.06C237.085 1398.63 237.288 1388.54 234.898 1382.78C232.509 1377.01 223.604 1370.29 215.213 1370.12C212.797 1364.1 208.982 1360.72 205.68 1358.24C202.377 1355.75 195.961 1352.46 189.432 1351.81C182.903 1351.16 174.804 1351.78 167.514 1355.68C162.202 1348.47 155.618 1347.56 150.668 1347.46C146.48 1347.38 139.582 1349.39 135.335 1352.97C135.335 1352.97 134.314 1348.29 130.854 1346.26C130.416 1343.25 127.997 1339.28 123.54 1337.11C119.084 1334.94 110.064 1335.83 107.544 1336.78C104.606 1333.72 96.1999 1329.05 85.6201 1332.83C75.0404 1336.61 74.784 1349.11 74.784 1349.11Z" stroke="#90B44B" stroke-width="4" stroke-linecap="round"/>
<path d="M134.616 1365C134.645 1366.19 133.767 1369.25 133.225 1370.21C139.121 1369.49 139.866 1373.41 143.383 1376.46C148.997 1381.33 155.511 1388.67 154.02 1392.25C147.033 1394.65 143.465 1394.13 137.774 1392.58C132.083 1391.02 126.591 1386.85 126.681 1382.5" stroke="#90B44B" stroke-width="4" stroke-linecap="round"/>
<path d="M68.5479 1384.96C68.6945 1385.01 68.8367 1385.08 68.9743 1385.16C69.185 1385.3 69.3588 1385.47 69.4937 1385.68C69.6365 1385.9 69.7162 1386.14 69.7329 1386.4L69.7331 1386.4L69.7335 1386.41C69.7454 1386.71 69.6473 1386.99 69.4871 1387.23C69.4113 1387.35 69.2956 1387.44 69.2243 1387.49C69.1353 1387.56 69.0273 1387.62 68.9086 1387.69C68.6705 1387.82 68.3649 1387.97 68.0306 1388.09C67.6658 1388.23 67.2266 1388.31 66.881 1388.36C66.7867 1388.38 66.7073 1388.39 66.6343 1388.4C66.5579 1388.41 66.4885 1388.42 66.4166 1388.43C66.3854 1388.44 66.3572 1388.44 66.3321 1388.45C66.1653 1388.7 66.0575 1389.01 65.9824 1389.36C65.9389 1389.56 65.9083 1389.76 65.8813 1389.96C65.8747 1390.01 65.8682 1390.06 65.8617 1390.11C65.8494 1390.2 65.837 1390.3 65.8239 1390.38C66.0302 1390.9 66.1809 1391.1 66.3062 1391.22C66.3752 1391.28 66.4518 1391.34 66.5624 1391.4C66.5936 1391.42 66.6361 1391.44 66.6847 1391.47C66.7769 1391.52 66.8912 1391.59 66.9925 1391.65C66.9986 1391.65 67.0013 1391.65 67.0105 1391.65C67.0253 1391.65 67.0557 1391.65 67.1142 1391.64C67.1694 1391.63 67.2262 1391.61 67.3063 1391.59C67.3162 1391.58 67.3264 1391.58 67.337 1391.58C67.4251 1391.55 67.538 1391.52 67.6592 1391.49C67.915 1391.45 68.2312 1391.45 68.5606 1391.63C68.873 1391.8 69.1358 1392.11 69.374 1392.54C69.6134 1392.98 69.7295 1393.38 69.6822 1393.75C69.6314 1394.14 69.4056 1394.41 69.1568 1394.57C68.9242 1394.72 68.6637 1394.79 68.4819 1394.83C68.399 1394.84 68.3214 1394.86 68.2648 1394.87C68.2575 1394.87 68.2505 1394.87 68.2439 1394.87C68.1981 1394.88 68.1806 1394.88 68.1789 1394.88C68.0574 1394.92 67.9031 1394.94 67.7806 1394.94C67.639 1394.95 67.4746 1394.96 67.3076 1394.95C66.9922 1394.94 66.5953 1394.91 66.3202 1394.81C66.2135 1394.78 66.1198 1394.76 66.0018 1394.73C65.9171 1394.71 65.8199 1394.68 65.6963 1394.65C65.4325 1394.58 65.1288 1394.47 64.7977 1394.28C64.4648 1394.09 64.1306 1393.8 63.8721 1393.54C63.7408 1393.41 63.6219 1393.28 63.5264 1393.16C63.4414 1393.05 63.3446 1392.91 63.2917 1392.78C63.2274 1392.62 63.1557 1392.36 63.0972 1392.14C63.0847 1392.1 63.0726 1392.05 63.0609 1392.01C62.971 1392.03 62.8744 1392.05 62.7748 1392.08C62.7399 1392.09 62.7047 1392.1 62.6692 1392.11C62.4867 1392.15 62.2987 1392.2 62.1386 1392.24C61.9949 1392.27 61.8254 1392.31 61.7057 1392.32C61.1643 1392.34 60.779 1392.31 60.4365 1392.23C60.1952 1392.17 59.9711 1392.09 59.7592 1392.01C59.6887 1391.99 59.6195 1391.96 59.5515 1391.94C59.1281 1391.79 58.7897 1391.49 58.5421 1391.21C58.2906 1390.92 58.1015 1390.61 57.9834 1390.38C57.8602 1390.14 57.755 1389.85 57.6953 1389.57C57.6394 1389.31 57.6058 1388.98 57.7057 1388.69C57.7119 1388.67 57.7196 1388.65 57.7288 1388.62C57.7732 1388.48 57.8538 1388.22 57.9811 1388.01C58.1547 1387.72 58.4549 1387.42 58.9503 1387.37C59.3091 1387.33 59.5785 1387.51 59.7492 1387.69C59.9143 1387.86 60.0364 1388.08 60.1267 1388.26C60.1865 1388.39 60.2473 1388.52 60.2983 1388.64C60.3224 1388.7 60.3442 1388.75 60.3628 1388.79C60.396 1388.86 60.4223 1388.91 60.444 1388.95C60.4457 1388.95 60.4473 1388.96 60.4488 1388.96C60.4557 1388.96 60.4642 1388.97 60.4744 1388.97C60.5279 1388.99 60.6048 1389.02 60.702 1389.04C60.8966 1389.09 61.1447 1389.14 61.3992 1389.14C61.9621 1389.16 62.3189 1389.02 62.4476 1388.81C62.7114 1388.36 62.7937 1388.15 62.8663 1387.9C62.8867 1387.83 62.9075 1387.76 62.9314 1387.67C62.9807 1387.49 63.0429 1387.25 63.1401 1386.95C63.1167 1386.94 63.0925 1386.93 63.0696 1386.92C62.7509 1386.81 62.332 1386.59 62.0211 1386.02C61.752 1385.53 61.6681 1385.13 61.6749 1384.79C61.6782 1384.63 61.7032 1384.5 61.7275 1384.4C61.7366 1384.36 61.7465 1384.32 61.7532 1384.3C61.7548 1384.29 61.7562 1384.29 61.7574 1384.28C61.7612 1384.27 61.763 1384.26 61.7636 1384.26C61.8036 1384 61.9639 1383.57 62.2023 1383.15C62.323 1382.93 62.5032 1382.65 62.759 1382.47C62.8941 1382.37 63.0638 1382.29 63.2652 1382.27C63.4702 1382.25 63.6701 1382.3 63.8549 1382.4C64.552 1382.77 64.7498 1383.6 64.7337 1384.39C64.7275 1384.69 64.7832 1384.92 64.8891 1385.1C64.9944 1385.27 65.174 1385.45 65.4874 1385.6C65.549 1385.63 65.6535 1385.65 65.8245 1385.62C65.9939 1385.59 66.1865 1385.52 66.387 1385.43C66.5855 1385.34 66.7711 1385.24 66.9316 1385.15L66.9458 1385.14C67.0177 1385.1 67.0906 1385.06 67.1519 1385.03C67.1849 1385.01 67.2225 1384.99 67.2605 1384.97C67.2891 1384.96 67.348 1384.94 67.4195 1384.93C67.6377 1384.89 67.8434 1384.87 68.0302 1384.87C68.208 1384.87 68.3826 1384.9 68.5479 1384.96ZM68.5479 1384.96C68.5488 1384.96 68.5496 1384.96 68.5505 1384.96L68.3857 1385.43L68.5454 1384.96C68.5462 1384.96 68.5471 1384.96 68.5479 1384.96Z" fill="#90B44B" stroke="#90B44B"/>
<path d="M88.909 1377.07C90.7432 1378.81 89.8941 1380.1 88.8573 1380.89C87.8205 1381.69 85.6769 1380.63 84.6686 1379.32C83.6604 1378.01 83.5608 1376.13 84.5976 1375.34C85.6343 1374.54 87.0747 1375.33 88.909 1377.07Z" fill="#90B44B"/>
<path d="M66.2833 1373.44C65.3821 1374.64 64.0218 1375.03 62.8754 1374.16C61.7289 1373.3 61.5301 1371.63 62.4313 1370.43C63.3325 1369.24 65.6103 1368.87 66.7567 1369.74C67.9031 1370.6 67.1845 1372.25 66.2833 1373.44Z" fill="#90B44B"/>
<path d="M59.0581 1627.36C63.7641 1623.92 68.8167 1622.14 72.3502 1621.57C72.3502 1621.57 77.2039 1610.05 88.4332 1610.44C99.6625 1610.83 105.748 1618.28 107.348 1622.21C110.04 1622.25 118.752 1624.76 122.093 1628.42C125.433 1632.08 126.214 1636.66 125.51 1639.62C127.974 1642.79 127.195 1647.52 127.195 1647.52C132.463 1645.76 139.618 1646.43 143.479 1648.06C148.041 1649.98 153.826 1653.25 156.099 1661.92C164.313 1660.99 172.07 1663.4 177.896 1666.42C183.722 1669.43 188.47 1674.86 190.621 1678.39C192.772 1681.92 195.071 1686.46 195.094 1692.95C202.828 1696.21 208.62 1705.75 208.711 1711.99C208.803 1718.23 204.889 1727.53 199.711 1731.31C199.223 1739.46 197.828 1742.71 194.985 1745.57C192.142 1748.43 189.208 1749.71 184.41 1752.6C185.322 1756.43 184.435 1756.1 186.41 1758.12C188.279 1760.04 192.068 1759.62 191.105 1763.19C190.659 1764.84 193.984 1768.6 192.191 1769.35C189.084 1770.66 180.225 1767.95 177.368 1766.71C175.547 1765.92 170.393 1761.17 170.393 1761.17C170.393 1761.17 155.583 1770.67 141.125 1759C128.98 1759.86 119.587 1761.18 111.381 1758.97C103.175 1756.75 96.1932 1748.94 90.2169 1744.22C85.3512 1744.98 72.2962 1742.83 68.8083 1741.03C65.3203 1739.23 60.3264 1734.08 56.5416 1728.92C48.8713 1730.47 44.2086 1731.02 41.045 1732.01C39.4837 1732.5 36.3099 1732.78 35.8639 1731.3C32.2546 1730.63 29.5636 1729.09 30.137 1726.97C30.4862 1725.67 33.6998 1722.72 35.2917 1722.48C37.6823 1722.1 38.954 1720.51 40.7314 1718.95C43.1127 1716.87 43.3091 1716.31 41.111 1714.99C37.9108 1713.06 34.9299 1709.47 31.1898 1708.24C26.9751 1706.87 23.429 1703.85 22.9539 1699.81C22.2532 1693.84 24.1001 1695.3 28.0397 1696.36C30.8616 1697.13 32.8891 1696.18 35.6715 1696.87C39.4784 1697.82 44.1832 1701.05 45.3907 1696.58C46.4841 1692.52 49.8742 1685.2 53.5557 1682.82C54.0355 1682.51 55.3224 1681.54 58.8667 1679.56C57.4562 1680.26 52.8514 1678.77 51.1775 1678.11L51.1704 1678.11C49.4507 1677.43 43.7309 1675.19 39.2819 1671.23C34.8266 1667.26 30.8367 1662.71 30.0918 1657.48C29.4785 1653.16 31.9609 1645.64 36.6927 1641.81C41.4245 1637.98 44.7757 1637.18 49.0636 1635.63C53.3514 1634.07 54.352 1630.8 59.0581 1627.36Z" fill="white"/>
<path d="M72.3502 1621.57C68.8167 1622.14 63.7641 1623.92 59.0581 1627.36C54.352 1630.8 53.3514 1634.07 49.0636 1635.63C44.7757 1637.18 41.4245 1637.98 36.6927 1641.81C31.9609 1645.64 29.4785 1653.16 30.0918 1657.48C30.8367 1662.71 34.8266 1667.26 39.2819 1671.23C43.7371 1675.19 49.4665 1677.44 51.1775 1678.11C52.8885 1678.78 57.6617 1680.33 58.9557 1679.51C55.3438 1681.52 54.0395 1682.5 53.5557 1682.82C49.8742 1685.2 46.4841 1692.52 45.3907 1696.58C44.1832 1701.05 39.4784 1697.82 35.6715 1696.87C32.8891 1696.18 30.8616 1697.13 28.0397 1696.36C24.1001 1695.3 22.2532 1693.84 22.9539 1699.81C23.429 1703.85 26.9751 1706.87 31.1898 1708.24C34.9299 1709.47 37.9108 1713.06 41.111 1714.99C43.3091 1716.31 43.1127 1716.87 40.7314 1718.95C38.954 1720.51 37.6823 1722.1 35.2917 1722.48C33.6998 1722.72 30.4862 1725.67 30.137 1726.97C29.5636 1729.09 32.2546 1730.63 35.8639 1731.3C36.3099 1732.78 39.4837 1732.5 41.045 1732.01C44.2086 1731.02 48.8713 1730.47 56.5416 1728.92C60.3264 1734.08 65.3203 1739.23 68.8083 1741.03C72.2962 1742.83 85.3512 1744.98 90.2169 1744.22C96.1932 1748.94 103.175 1756.75 111.381 1758.97C119.587 1761.18 128.98 1759.86 141.125 1759C155.583 1770.67 170.393 1761.17 170.393 1761.17C170.393 1761.17 175.547 1765.92 177.368 1766.71C180.225 1767.95 189.084 1770.66 192.191 1769.35C193.984 1768.6 190.659 1764.84 191.105 1763.19C192.068 1759.62 188.279 1760.04 186.41 1758.12C184.435 1756.1 185.322 1756.43 184.41 1752.6C189.208 1749.71 192.142 1748.43 194.985 1745.57C197.828 1742.71 199.223 1739.46 199.711 1731.31C204.889 1727.53 208.803 1718.23 208.711 1711.99C208.62 1705.75 202.828 1696.21 195.094 1692.95C195.071 1686.46 192.772 1681.92 190.621 1678.39C188.47 1674.86 183.722 1669.43 177.896 1666.42C172.07 1663.4 164.313 1660.99 156.099 1661.92C153.826 1653.25 148.041 1649.98 143.479 1648.06C139.618 1646.43 132.463 1645.76 127.195 1647.52C127.195 1647.52 127.974 1642.79 125.51 1639.62C126.214 1636.66 125.433 1632.08 122.093 1628.42C118.752 1624.76 110.04 1622.25 107.348 1622.21C105.748 1618.28 99.6625 1610.83 88.4332 1610.44C77.2039 1610.05 72.3502 1621.57 72.3502 1621.57Z" stroke="#90B44B" stroke-width="4" stroke-linecap="round"/>
<path d="M122.083 1658.43C121.673 1659.54 119.725 1662.07 118.867 1662.76C124.612 1664.27 123.859 1668.18 126 1672.32C129.417 1678.92 132.759 1688.15 130.053 1690.92C122.673 1690.57 119.55 1688.77 114.835 1685.22C110.12 1681.67 106.556 1675.77 108.246 1671.76" stroke="#90B44B" stroke-width="4" stroke-linecap="round"/>
<path d="M53.3162 1652.57C53.4341 1652.68 53.54 1652.79 53.636 1652.92C53.7829 1653.13 53.8801 1653.35 53.928 1653.6C53.9803 1653.85 53.9647 1654.11 53.8844 1654.35L53.8846 1654.35L53.8804 1654.37C53.781 1654.65 53.5876 1654.87 53.3481 1655.04C53.2348 1655.12 53.0945 1655.16 53.0092 1655.18C52.9026 1655.21 52.7774 1655.23 52.6426 1655.25C52.3719 1655.28 52.0345 1655.3 51.6773 1655.3C51.2876 1655.29 50.8506 1655.2 50.5095 1655.12C50.4164 1655.1 50.3383 1655.08 50.2665 1655.07C50.1913 1655.05 50.123 1655.03 50.052 1655.02C50.0211 1655.01 49.9932 1655 49.9682 1655C49.7209 1655.17 49.5052 1655.42 49.3071 1655.72C49.1924 1655.89 49.0891 1656.06 48.9906 1656.24C48.9666 1656.28 48.9423 1656.33 48.918 1656.37C48.8719 1656.45 48.8255 1656.53 48.7805 1656.61C48.7836 1657.16 48.8476 1657.41 48.9206 1657.57C48.9608 1657.65 49.0126 1657.73 49.0915 1657.83C49.1138 1657.86 49.1445 1657.9 49.1796 1657.94C49.2462 1658.02 49.3288 1658.12 49.4001 1658.22C49.4045 1658.22 49.4066 1658.23 49.4148 1658.23C49.4282 1658.24 49.4568 1658.25 49.516 1658.26C49.5718 1658.26 49.631 1658.27 49.7144 1658.28C49.7246 1658.28 49.7353 1658.28 49.7463 1658.28C49.838 1658.29 49.9553 1658.3 50.0761 1658.32C50.3312 1658.37 50.6258 1658.49 50.8645 1658.78C51.0908 1659.05 51.2223 1659.44 51.2835 1659.93C51.3451 1660.42 51.3041 1660.84 51.1243 1661.16C50.9314 1661.51 50.6238 1661.67 50.3327 1661.73C50.0605 1661.79 49.7928 1661.75 49.6098 1661.72C49.5264 1661.71 49.4495 1661.69 49.3935 1661.68C49.3862 1661.68 49.3793 1661.68 49.3728 1661.67C49.3274 1661.66 49.3097 1661.66 49.3082 1661.66C49.1806 1661.65 49.0314 1661.61 48.9146 1661.57C48.7795 1661.53 48.6258 1661.47 48.4722 1661.41C48.1821 1661.28 47.826 1661.1 47.6055 1660.91C47.5199 1660.84 47.4412 1660.78 47.3421 1660.71C47.2711 1660.66 47.1895 1660.61 47.0872 1660.53C46.8689 1660.36 46.625 1660.15 46.3883 1659.85C46.1503 1659.55 45.945 1659.16 45.8006 1658.83C45.7274 1658.65 45.6657 1658.49 45.6215 1658.34C45.5821 1658.21 45.542 1658.05 45.5416 1657.91C45.5402 1657.74 45.57 1657.47 45.5967 1657.24C45.6024 1657.19 45.608 1657.15 45.6135 1657.1C45.5215 1657.09 45.4226 1657.08 45.3205 1657.06C45.2848 1657.06 45.2486 1657.05 45.2123 1657.05C45.0254 1657.03 44.833 1657 44.6704 1656.98C44.5247 1656.95 44.3537 1656.92 44.2402 1656.89C43.7275 1656.71 43.3828 1656.53 43.0942 1656.33C42.8907 1656.19 42.7125 1656.03 42.5439 1655.88C42.4878 1655.83 42.4327 1655.79 42.3782 1655.74C42.0387 1655.45 41.8337 1655.05 41.7083 1654.69C41.581 1654.33 41.5201 1653.97 41.4957 1653.71C41.4702 1653.44 41.4786 1653.14 41.5262 1652.86C41.5708 1652.59 41.6626 1652.27 41.8623 1652.04C41.8747 1652.02 41.8908 1652 41.9102 1651.98C42.0034 1651.87 42.1728 1651.66 42.37 1651.51C42.639 1651.3 43.0271 1651.14 43.5071 1651.27C43.8545 1651.37 44.0384 1651.63 44.131 1651.86C44.2205 1652.08 44.253 1652.33 44.2692 1652.54C44.2798 1652.67 44.2851 1652.82 44.2896 1652.95C44.2917 1653.01 44.2936 1653.07 44.2958 1653.11C44.2997 1653.19 44.3045 1653.25 44.3106 1653.29C44.3111 1653.3 44.3116 1653.3 44.3121 1653.3C44.3173 1653.31 44.3238 1653.31 44.3317 1653.32C44.3731 1653.36 44.435 1653.42 44.516 1653.47C44.678 1653.59 44.8933 1653.72 45.1267 1653.83C45.6428 1654.05 46.0261 1654.05 46.2257 1653.9C46.6347 1653.58 46.7896 1653.42 46.9482 1653.21C46.9926 1653.16 47.0406 1653.09 47.0956 1653.02C47.2089 1652.87 47.352 1652.68 47.5549 1652.43C47.5361 1652.41 47.5168 1652.4 47.4986 1652.38C47.2455 1652.15 46.935 1651.8 46.8567 1651.16C46.7889 1650.6 46.8604 1650.19 46.9896 1649.88C47.053 1649.73 47.1254 1649.62 47.185 1649.54C47.2074 1649.5 47.23 1649.47 47.2453 1649.45C47.249 1649.45 47.2522 1649.44 47.2549 1649.44C47.2637 1649.43 47.2681 1649.42 47.2696 1649.42C47.4029 1649.19 47.7084 1648.86 48.0876 1648.55C48.2796 1648.39 48.5496 1648.2 48.855 1648.13C49.0164 1648.09 49.2039 1648.07 49.3984 1648.13C49.5964 1648.19 49.765 1648.3 49.9002 1648.46C50.4104 1649.07 50.2875 1649.91 49.9825 1650.64C49.8649 1650.91 49.8329 1651.15 49.8651 1651.35C49.8971 1651.56 50 1651.78 50.2341 1652.04C50.2801 1652.09 50.3704 1652.15 50.5401 1652.19C50.7082 1652.22 50.9126 1652.23 51.1328 1652.22C51.3509 1652.21 51.5616 1652.18 51.7442 1652.15L51.7603 1652.15C51.8421 1652.14 51.925 1652.13 51.9937 1652.12C52.0307 1652.12 52.0725 1652.12 52.1137 1652.11C52.1447 1652.11 52.2082 1652.11 52.2792 1652.13C52.4966 1652.17 52.6956 1652.23 52.867 1652.3C53.0311 1652.37 53.1838 1652.46 53.3162 1652.57ZM53.3162 1652.57C53.3169 1652.58 53.3176 1652.58 53.3183 1652.58L52.9909 1652.95L53.3142 1652.57C53.3149 1652.57 53.3156 1652.57 53.3162 1652.57Z" fill="#90B44B" stroke="#90B44B"/>
<path d="M75.1505 1652.77C76.211 1655.06 74.9488 1655.94 73.6916 1656.3C72.4345 1656.65 70.8308 1654.88 70.3794 1653.29C69.9279 1651.7 70.5273 1649.92 71.7844 1649.56C73.0416 1649.21 74.09 1650.47 75.1505 1652.77Z" fill="#90B44B"/>
<path d="M55.4649 1641.04C54.1862 1641.81 52.7773 1641.68 52.0313 1640.45C51.2854 1639.22 51.7172 1637.6 52.9958 1636.82C54.2744 1636.04 56.5266 1636.54 57.2726 1637.77C58.0185 1639 56.7435 1640.26 55.4649 1641.04Z" fill="#90B44B"/>
<path d="M247.727 1879.08C252.433 1875.64 257.485 1873.86 261.019 1873.29C261.019 1873.29 265.872 1861.77 277.102 1862.16C288.331 1862.55 294.417 1870 296.017 1873.93C298.709 1873.98 307.421 1876.48 310.761 1880.14C314.102 1883.8 314.882 1888.39 314.178 1891.35C316.642 1894.51 315.864 1899.24 315.864 1899.24C321.132 1897.48 328.287 1898.16 332.147 1899.78C336.71 1901.7 342.494 1904.98 344.767 1913.64C352.981 1912.71 360.738 1915.12 366.564 1918.14C372.391 1921.16 377.138 1926.58 379.289 1930.11C381.441 1933.64 383.739 1938.19 383.762 1944.67C391.497 1947.93 397.288 1957.47 397.38 1963.71C397.471 1969.95 393.557 1979.25 388.379 1983.03C387.892 1991.19 386.497 1994.43 383.654 1997.29C380.811 2000.15 377.876 2001.43 373.079 2004.32C373.991 2008.15 373.104 2007.82 375.078 2009.85C376.948 2011.77 380.736 2011.35 379.774 2014.91C379.327 2016.57 382.652 2020.32 380.859 2021.08C377.753 2022.38 368.894 2019.68 366.036 2018.43C364.216 2017.64 359.061 2012.89 359.061 2012.89C359.061 2012.89 344.252 2022.39 329.793 2010.72C317.648 2011.59 308.256 2012.91 300.05 2010.69C291.843 2008.48 284.862 2000.66 278.885 1995.94C274.02 1996.7 260.965 1994.56 257.477 1992.75C253.989 1990.95 248.995 1985.8 245.21 1980.64C237.54 1982.19 232.877 1982.74 229.713 1983.73C228.152 1984.22 224.978 1984.5 224.532 1983.02C220.923 1982.36 218.232 1980.82 218.805 1978.69C219.155 1977.4 222.368 1974.45 223.96 1974.2C226.351 1973.83 227.622 1972.23 229.4 1970.68C231.781 1968.59 231.978 1968.04 229.779 1966.71C226.579 1964.79 223.598 1961.19 219.858 1959.97C215.644 1958.59 212.097 1955.58 211.622 1951.53C210.922 1945.56 212.769 1947.02 216.708 1948.09C219.53 1948.85 221.558 1947.9 224.34 1948.59C228.147 1949.54 232.852 1952.77 234.059 1948.3C235.153 1944.25 238.543 1936.92 242.224 1934.54C242.704 1934.23 243.991 1933.26 247.535 1931.29C246.125 1931.98 241.52 1930.49 239.846 1929.83L239.839 1929.83C238.119 1929.15 232.399 1926.91 227.95 1922.95C223.495 1918.98 219.505 1914.44 218.76 1909.2C218.147 1904.89 220.629 1897.37 225.361 1893.53C230.093 1889.7 233.444 1888.91 237.732 1887.35C242.02 1885.79 243.02 1882.53 247.727 1879.08Z" fill="white"/>
<path d="M261.019 1873.29C257.485 1873.86 252.433 1875.64 247.727 1879.08C243.02 1882.53 242.02 1885.79 237.732 1887.35C233.444 1888.91 230.093 1889.7 225.361 1893.53C220.629 1897.37 218.147 1904.89 218.76 1909.2C219.505 1914.44 223.495 1918.98 227.95 1922.95C232.406 1926.91 238.135 1929.16 239.846 1929.83C241.557 1930.5 246.33 1932.05 247.624 1931.24C244.012 1933.24 242.708 1934.23 242.224 1934.54C238.543 1936.92 235.153 1944.25 234.059 1948.3C232.852 1952.77 228.147 1949.54 224.34 1948.59C221.558 1947.9 219.53 1948.85 216.708 1948.09C212.769 1947.02 210.922 1945.56 211.622 1951.53C212.097 1955.58 215.644 1958.59 219.858 1959.97C223.598 1961.19 226.579 1964.79 229.779 1966.71C231.978 1968.04 231.781 1968.59 229.4 1970.68C227.622 1972.23 226.351 1973.83 223.96 1974.2C222.368 1974.45 219.155 1977.4 218.805 1978.69C218.232 1980.82 220.923 1982.36 224.532 1983.02C224.978 1984.5 228.152 1984.22 229.713 1983.73C232.877 1982.74 237.54 1982.19 245.21 1980.64C248.995 1985.8 253.989 1990.95 257.477 1992.75C260.965 1994.56 274.02 1996.7 278.885 1995.94C284.862 2000.66 291.843 2008.48 300.05 2010.69C308.256 2012.91 317.648 2011.59 329.793 2010.72C344.252 2022.39 359.061 2012.89 359.061 2012.89C359.061 2012.89 364.216 2017.64 366.036 2018.43C368.894 2019.68 377.753 2022.38 380.859 2021.08C382.652 2020.32 379.327 2016.57 379.774 2014.91C380.736 2011.35 376.948 2011.77 375.078 2009.85C373.104 2007.82 373.991 2008.15 373.079 2004.32C377.876 2001.43 380.811 2000.15 383.654 1997.29C386.497 1994.43 387.892 1991.19 388.379 1983.03C393.557 1979.25 397.471 1969.95 397.38 1963.71C397.288 1957.47 391.497 1947.93 383.762 1944.67C383.739 1938.19 381.441 1933.64 379.289 1930.11C377.138 1926.58 372.391 1921.16 366.564 1918.14C360.738 1915.12 352.981 1912.71 344.767 1913.64C342.494 1904.98 336.71 1901.7 332.147 1899.78C328.287 1898.16 321.132 1897.48 315.864 1899.24C315.864 1899.24 316.642 1894.51 314.178 1891.35C314.882 1888.39 314.102 1883.8 310.761 1880.14C307.421 1876.48 298.709 1873.98 296.017 1873.93C294.417 1870 288.331 1862.55 277.102 1862.16C265.872 1861.77 261.019 1873.29 261.019 1873.29Z" stroke="#90B44B" stroke-width="4" stroke-linecap="round"/>
<path d="M310.752 1910.15C310.341 1911.27 308.393 1913.79 307.536 1914.48C313.281 1915.99 312.528 1919.9 314.668 1924.04C318.085 1930.64 321.427 1939.87 318.722 1942.64C311.341 1942.29 308.218 1940.49 303.503 1936.94C298.788 1933.4 295.225 1927.49 296.915 1923.49" stroke="#90B44B" stroke-width="4" stroke-linecap="round"/>
<path d="M241.985 1904.3C242.103 1904.4 242.209 1904.52 242.304 1904.65C242.451 1904.85 242.549 1905.08 242.596 1905.32C242.649 1905.57 242.633 1905.83 242.553 1906.08L242.553 1906.08L242.549 1906.09C242.449 1906.37 242.256 1906.59 242.017 1906.76C241.903 1906.84 241.763 1906.88 241.678 1906.9C241.571 1906.93 241.446 1906.95 241.311 1906.97C241.04 1907.01 240.703 1907.03 240.346 1907.02C239.956 1907.01 239.519 1906.92 239.178 1906.85C239.085 1906.83 239.007 1906.81 238.935 1906.79C238.86 1906.77 238.792 1906.76 238.72 1906.74C238.69 1906.73 238.662 1906.73 238.637 1906.72C238.389 1906.89 238.174 1907.14 237.976 1907.44C237.861 1907.61 237.758 1907.79 237.659 1907.96C237.635 1908.01 237.611 1908.05 237.586 1908.09C237.54 1908.17 237.494 1908.26 237.449 1908.34C237.452 1908.89 237.516 1909.13 237.589 1909.29C237.629 1909.37 237.681 1909.45 237.76 1909.55C237.782 1909.58 237.813 1909.62 237.848 1909.66C237.915 1909.74 237.997 1909.85 238.069 1909.94C238.073 1909.95 238.075 1909.95 238.083 1909.95C238.097 1909.96 238.125 1909.97 238.184 1909.98C238.24 1909.99 238.299 1909.99 238.383 1910C238.393 1910 238.404 1910 238.415 1910C238.507 1910.01 238.624 1910.02 238.745 1910.05C239 1910.1 239.294 1910.21 239.533 1910.5C239.759 1910.78 239.891 1911.16 239.952 1911.65C240.014 1912.14 239.973 1912.56 239.793 1912.89C239.6 1913.23 239.292 1913.4 239.001 1913.45C238.729 1913.51 238.461 1913.48 238.278 1913.45C238.195 1913.43 238.118 1913.41 238.062 1913.4C238.055 1913.4 238.048 1913.4 238.041 1913.4C237.996 1913.39 237.978 1913.39 237.977 1913.38C237.849 1913.38 237.7 1913.33 237.583 1913.3C237.448 1913.25 237.294 1913.19 237.141 1913.13C236.851 1913 236.494 1912.83 236.274 1912.64C236.188 1912.56 236.11 1912.51 236.011 1912.44C235.94 1912.39 235.858 1912.33 235.756 1912.25C235.537 1912.09 235.294 1911.88 235.057 1911.58C234.819 1911.27 234.613 1910.89 234.469 1910.55C234.396 1910.38 234.334 1910.21 234.29 1910.06C234.251 1909.93 234.21 1909.77 234.21 1909.63C234.209 1909.46 234.239 1909.19 234.265 1908.96C234.271 1908.92 234.276 1908.87 234.282 1908.82C234.19 1908.81 234.091 1908.8 233.989 1908.79C233.953 1908.78 233.917 1908.78 233.881 1908.77C233.694 1908.75 233.501 1908.72 233.339 1908.7C233.193 1908.68 233.022 1908.65 232.909 1908.61C232.396 1908.43 232.051 1908.26 231.763 1908.06C231.559 1907.92 231.381 1907.76 231.212 1907.61C231.156 1907.56 231.101 1907.51 231.047 1907.46C230.707 1907.17 230.502 1906.77 230.377 1906.41C230.249 1906.05 230.189 1905.69 230.164 1905.44C230.139 1905.17 230.147 1904.86 230.195 1904.58C230.239 1904.32 230.331 1903.99 230.531 1903.76C230.543 1903.75 230.559 1903.73 230.579 1903.7C230.672 1903.59 230.841 1903.38 231.038 1903.23C231.307 1903.02 231.696 1902.86 232.176 1902.99C232.523 1903.09 232.707 1903.36 232.799 1903.59C232.889 1903.81 232.921 1904.06 232.938 1904.26C232.948 1904.4 232.954 1904.55 232.958 1904.67C232.96 1904.73 232.962 1904.79 232.964 1904.83C232.968 1904.91 232.973 1904.97 232.979 1905.02C232.98 1905.02 232.98 1905.02 232.981 1905.03C232.986 1905.03 232.992 1905.04 233 1905.05C233.042 1905.09 233.103 1905.14 233.184 1905.2C233.346 1905.32 233.562 1905.45 233.795 1905.55C234.311 1905.77 234.695 1905.78 234.894 1905.62C235.303 1905.31 235.458 1905.14 235.617 1904.94C235.661 1904.88 235.709 1904.82 235.764 1904.74C235.877 1904.59 236.02 1904.4 236.223 1904.15C236.205 1904.14 236.185 1904.12 236.167 1904.1C235.914 1903.88 235.603 1903.52 235.525 1902.88C235.457 1902.32 235.529 1901.91 235.658 1901.61C235.721 1901.46 235.794 1901.34 235.853 1901.26C235.876 1901.23 235.898 1901.2 235.914 1901.18C235.917 1901.17 235.921 1901.17 235.923 1901.16C235.932 1901.15 235.937 1901.15 235.938 1901.14C236.071 1900.92 236.377 1900.58 236.756 1900.27C236.948 1900.12 237.218 1899.93 237.523 1899.85C237.685 1899.81 237.872 1899.8 238.067 1899.85C238.265 1899.91 238.433 1900.03 238.569 1900.19C239.079 1900.79 238.956 1901.64 238.651 1902.36C238.533 1902.64 238.501 1902.87 238.534 1903.08C238.566 1903.28 238.668 1903.51 238.903 1903.77C238.949 1903.82 239.039 1903.87 239.209 1903.91C239.377 1903.95 239.581 1903.95 239.801 1903.94C240.019 1903.93 240.23 1903.9 240.413 1903.88L240.429 1903.88C240.511 1903.86 240.593 1903.85 240.662 1903.85C240.699 1903.84 240.741 1903.84 240.782 1903.84C240.813 1903.84 240.877 1903.84 240.948 1903.85C241.165 1903.9 241.364 1903.95 241.535 1904.03C241.7 1904.1 241.852 1904.18 241.985 1904.3ZM241.985 1904.3C241.985 1904.3 241.986 1904.3 241.987 1904.3L241.659 1904.68L241.983 1904.3C241.983 1904.3 241.984 1904.3 241.985 1904.3Z" fill="#90B44B" stroke="#90B44B"/>
<path d="M263.819 1904.49C264.879 1906.79 263.617 1907.66 262.36 1908.02C261.103 1908.38 259.499 1906.61 259.048 1905.01C258.596 1903.42 259.196 1901.64 260.453 1901.29C261.71 1900.93 262.758 1902.19 263.819 1904.49Z" fill="#90B44B"/>
<path d="M244.133 1892.76C242.855 1893.54 241.446 1893.4 240.7 1892.17C239.954 1890.95 240.386 1889.32 241.664 1888.54C242.943 1887.77 245.195 1888.27 245.941 1889.49C246.687 1890.72 245.412 1891.98 244.133 1892.76Z" fill="#90B44B"/>
</g>
<defs>
<clipPath id="clip0_501_563">
<rect width="445" height="2100" fill="white"/>
</clipPath>
</defs>
</svg>
